<svg xmlns="http://www.w3.org/2000/svg" xmlns:xlink="http://www.w3.org/1999/xlink" width="500" zoomAndPan="magnify" viewBox="0 0 375 374.999991" height="500" preserveAspectRatio="xMidYMid meet" version="1.0"><defs><g/><clipPath id="f31180b69a"><path d="M 85.617188 94 L 185 94 L 185 186 L 85.617188 186 Z M 85.617188 94 " clip-rule="nonzero"/></clipPath><clipPath id="eef7f6f9d9"><path d="M 167 230 L 171 230 L 171 291.5625 L 167 291.5625 Z M 167 230 " clip-rule="nonzero"/></clipPath><clipPath id="13a53780e1"><path d="M 129 230 L 132 230 L 132 291.5625 L 129 291.5625 Z M 129 230 " clip-rule="nonzero"/></clipPath><clipPath id="f867c99313"><path d="M 129 263 L 171 263 L 171 291.5625 L 129 291.5625 Z M 129 263 " clip-rule="nonzero"/></clipPath><clipPath id="2f9959010e"><path d="M 176 265 L 203 265 L 203 291.417969 L 176 291.417969 Z M 176 265 " clip-rule="nonzero"/></clipPath><clipPath id="8e31f0728e"><path d="M 199 265 L 226 265 L 226 291.417969 L 199 291.417969 Z M 199 265 " clip-rule="nonzero"/></clipPath><clipPath id="531a52eed1"><path d="M 85.617188 83.8125 L 329 83.8125 L 329 243 L 85.617188 243 Z M 85.617188 83.8125 " clip-rule="nonzero"/></clipPath><clipPath id="2d5c793698"><path d="M 85.617188 145 L 134 145 L 134 244 L 85.617188 244 Z M 85.617188 145 " clip-rule="nonzero"/></clipPath><clipPath id="e095d316d2"><path d="M 85.617188 182 L 134 182 L 134 189 L 85.617188 189 Z M 85.617188 182 " clip-rule="nonzero"/></clipPath><clipPath id="c09c4c3e19"><path d="M 85.617188 196 L 134 196 L 134 203 L 85.617188 203 Z M 85.617188 196 " clip-rule="nonzero"/></clipPath><clipPath id="c11172b0fc"><path d="M 128 226.363281 L 131.960938 226.363281 L 131.960938 291.417969 L 128 291.417969 Z M 128 226.363281 " clip-rule="nonzero"/></clipPath><clipPath id="713ad8c498"><path d="M 88.007812 226.363281 L 91 226.363281 L 91 291.417969 L 88.007812 291.417969 Z M 88.007812 226.363281 " clip-rule="nonzero"/></clipPath><clipPath id="9ef56a1497"><path d="M 88.007812 262.003906 L 131.960938 262.003906 L 131.960938 291.417969 L 88.007812 291.417969 Z M 88.007812 262.003906 " clip-rule="nonzero"/></clipPath><clipPath id="71e3cf0db5"><path d="M 286 83.8125 L 354 83.8125 L 354 291 L 286 291 Z M 286 83.8125 " clip-rule="nonzero"/></clipPath></defs><g clip-path="url(#f31180b69a)"><path stroke-linecap="round" transform="matrix(0.209304, 0, 0, -0.209637, 85.91403, 291.414326)" fill="none" stroke-linejoin="miter" d="M 112.650295 720.332177 L 112.650295 753.611473 C 112.650295 764.605193 121.515242 773.45607 132.507775 773.45607 L 283.435821 773.45607 C 294.409691 773.45607 303.311964 764.605193 303.311964 753.611473 L 303.311964 672.51881 " stroke="#88bf58" stroke-width="11.704" stroke-opacity="1" stroke-miterlimit="10"/></g><path stroke-linecap="round" transform="matrix(0.209304, 0, 0, -0.209637, 85.91403, 291.414326)" fill="none" stroke-linejoin="round" d="M 636.876568 533.662532 L 626.985155 593.587625 " stroke="#595a65" stroke-width="6.44" stroke-opacity="1" stroke-miterlimit="10"/><path stroke-linecap="round" transform="matrix(0.209304, 0, 0, -0.209637, 85.91403, 291.414326)" fill="none" stroke-linejoin="round" d="M 636.727264 533.420297 L 696.635639 543.351913 " stroke="#595a65" stroke-width="6.44" stroke-opacity="1" stroke-miterlimit="10"/><path stroke-linecap="round" transform="matrix(0.209304, 0, 0, -0.209637, 85.91403, 291.414326)" fill="none" stroke-linejoin="round" d="M 706.359085 483.184585 L 696.449008 543.109678 " stroke="#595a65" stroke-width="6.44" stroke-opacity="1" stroke-miterlimit="10"/><path stroke-linecap="round" transform="matrix(0.209304, 0, 0, -0.209637, 85.91403, 291.414326)" fill="none" stroke-linejoin="round" d="M 706.172455 482.923717 L 766.099493 492.836699 " stroke="#595a65" stroke-width="6.44" stroke-opacity="1" stroke-miterlimit="10"/><path stroke-linecap="round" transform="matrix(0.209304, 0, 0, -0.209637, 85.91403, 291.414326)" fill="none" stroke-linejoin="round" d="M 775.860265 432.688005 L 765.931525 492.613098 " stroke="#595a65" stroke-width="6.44" stroke-opacity="1" stroke-miterlimit="10"/><path stroke-linecap="round" transform="matrix(0.209304, 0, 0, -0.209637, 85.91403, 291.414326)" fill="none" stroke-linejoin="round" d="M 775.654972 432.408504 L 835.582009 442.340119 " stroke="#595a65" stroke-width="6.44" stroke-opacity="1" stroke-miterlimit="10"/><path stroke-linecap="round" transform="matrix(0.209304, 0, 0, -0.209637, 85.91403, 291.414326)" fill="none" stroke-linejoin="round" d="M 845.305456 382.172792 L 835.432705 442.097885 " stroke="#595a65" stroke-width="6.44" stroke-opacity="1" stroke-miterlimit="10"/><path stroke-linecap="round" transform="matrix(0.209304, 0, 0, -0.209637, 85.91403, 291.414326)" fill="none" stroke-linejoin="round" d="M 845.156152 381.949191 L 905.083189 391.824906 " stroke="#595a65" stroke-width="6.44" stroke-opacity="1" stroke-miterlimit="10"/><path stroke-linecap="round" transform="matrix(0.209304, 0, 0, -0.209637, 85.91403, 291.414326)" fill="none" stroke-linejoin="round" d="M 914.806636 331.676212 L 904.877896 391.582671 " stroke="#595a65" stroke-width="6.44" stroke-opacity="1" stroke-miterlimit="10"/><path stroke-linecap="round" transform="matrix(0.209304, 0, 0, -0.209637, 85.91403, 291.414326)" fill="none" stroke-linejoin="round" d="M 914.657331 331.433978 L 974.565706 341.346959 " stroke="#595a65" stroke-width="6.44" stroke-opacity="1" stroke-miterlimit="10"/><path stroke-linecap="round" transform="matrix(0.209304, 0, 0, -0.209637, 85.91403, 291.414326)" fill="none" stroke-linejoin="round" d="M 950.229095 304.918615 L 598.524011 556.786611 L 626.593231 595.972703 L 978.316978 344.086073 Z M 950.229095 304.918615 " stroke="#595a65" stroke-width="6.44" stroke-opacity="1" stroke-miterlimit="10"/><path fill="#c38359" d="M 290.976562 219.625 L 216.597656 166.273438 L 222.476562 158.058594 L 296.851562 211.402344 L 290.976562 219.625 " fill-opacity="1" fill-rule="nonzero"/><path fill="#c6c6c6" d="M 149.433594 246.015625 C 137.046875 246.015625 127.007812 235.960938 127.007812 223.554688 L 127.007812 176.566406 C 127.007812 164.160156 137.046875 154.105469 149.433594 154.105469 C 161.820312 154.105469 171.859375 164.160156 171.859375 176.566406 L 171.859375 223.554688 C 171.859375 235.960938 161.820312 246.015625 149.433594 246.015625 " fill-opacity="1" fill-rule="nonzero"/><path fill="#9dc5da" d="M 171.859375 189.113281 L 127.007812 189.113281 L 127.007812 194.707031 L 171.859375 194.707031 L 171.859375 189.113281 " fill-opacity="1" fill-rule="nonzero"/><path fill="#9dc5da" d="M 127.007812 201.910156 L 127.007812 207.503906 L 171.859375 207.503906 L 171.859375 201.910156 L 127.007812 201.910156 " fill-opacity="1" fill-rule="nonzero"/><path fill="#f37372" d="M 152.972656 151.835938 C 152.972656 153.800781 151.386719 155.390625 149.433594 155.390625 C 147.480469 155.390625 145.894531 153.800781 145.894531 151.835938 C 145.894531 149.878906 147.480469 148.289062 149.433594 148.289062 C 151.386719 148.289062 152.972656 149.878906 152.972656 151.835938 " fill-opacity="1" fill-rule="nonzero"/><path fill="#ce5259" d="M 155.074219 155.390625 L 143.792969 155.390625 L 143.792969 152.394531 C 143.792969 151.5 144.527344 150.765625 145.417969 150.765625 L 153.449219 150.765625 C 154.347656 150.765625 155.074219 151.5 155.074219 152.394531 L 155.074219 155.390625 " fill-opacity="1" fill-rule="nonzero"/><g clip-path="url(#eef7f6f9d9)"><path stroke-linecap="round" transform="matrix(0.209304, 0, 0, -0.209637, 85.91403, 291.414326)" fill="none" stroke-linejoin="round" d="M 395.750026 285.185818 L 395.750026 6.541591 " stroke="#595a65" stroke-width="12.367" stroke-opacity="1" stroke-miterlimit="10"/></g><g clip-path="url(#13a53780e1)"><path stroke-linecap="round" transform="matrix(0.209304, 0, 0, -0.209637, 85.91403, 291.414326)" fill="none" stroke-linejoin="round" d="M 212.03101 285.185818 L 212.03101 6.541591 " stroke="#595a65" stroke-width="12.367" stroke-opacity="1" stroke-miterlimit="10"/></g><g clip-path="url(#f867c99313)"><path stroke-linecap="round" transform="matrix(0.209304, 0, 0, -0.209637, 85.91403, 291.414326)" fill="none" stroke-linejoin="round" d="M 212.03101 6.541591 L 395.750026 126.037741 " stroke="#595a65" stroke-width="12.367" stroke-opacity="1" stroke-miterlimit="10"/><path stroke-linecap="round" transform="matrix(0.209304, 0, 0, -0.209637, 85.91403, 291.414326)" fill="none" stroke-linejoin="round" d="M 395.750026 6.541591 L 212.03101 126.037741 " stroke="#595a65" stroke-width="12.367" stroke-opacity="1" stroke-miterlimit="10"/></g><path stroke-linecap="round" transform="matrix(0.209304, 0, 0, -0.209637, 85.91403, 291.414326)" fill="none" stroke-linejoin="round" d="M 212.03101 126.596744 L 395.750026 246.074261 " stroke="#595a65" stroke-width="12.367" stroke-opacity="1" stroke-miterlimit="10"/><path stroke-linecap="round" transform="matrix(0.209304, 0, 0, -0.209637, 85.91403, 291.414326)" fill="none" stroke-linejoin="round" d="M 395.750026 126.596744 L 212.03101 246.074261 " stroke="#595a65" stroke-width="12.367" stroke-opacity="1" stroke-miterlimit="10"/><path stroke-linecap="round" transform="matrix(0.209304, 0, 0, -0.209637, 85.91403, 291.414326)" fill="none" stroke-linejoin="round" d="M 212.03101 285.185818 L 395.750026 285.185818 " stroke="#595a65" stroke-width="12.388" stroke-opacity="1" stroke-miterlimit="10"/><path stroke-linecap="round" transform="matrix(0.209304, 0, 0, -0.209637, 85.91403, 291.414326)" fill="none" stroke-linejoin="round" d="M 549.60817 117.056431 L 439.10428 117.056431 L 439.10428 227.57127 L 549.60817 227.57127 Z M 549.60817 117.056431 " stroke="#595a65" stroke-width="13" stroke-opacity="1" stroke-miterlimit="10"/><path stroke-linecap="round" transform="matrix(0.209304, 0, 0, -0.209637, 85.91403, 291.414326)" fill="none" stroke-linejoin="round" d="M 549.60817 227.57127 L 441.67978 119.627843 " stroke="#595a65" stroke-width="13" stroke-opacity="1" stroke-miterlimit="10"/><path stroke-linecap="round" transform="matrix(0.209304, 0, 0, -0.209637, 85.91403, 291.414326)" fill="none" stroke-linejoin="round" d="M 549.60817 117.056431 L 660.11206 117.056431 L 660.11206 227.57127 L 549.60817 227.57127 Z M 549.60817 117.056431 " stroke="#595a65" stroke-width="13" stroke-opacity="1" stroke-miterlimit="10"/><path stroke-linecap="round" transform="matrix(0.209304, 0, 0, -0.209637, 85.91403, 291.414326)" fill="none" stroke-linejoin="round" d="M 549.60817 227.57127 L 657.536559 119.627843 " stroke="#595a65" stroke-width="13" stroke-opacity="1" stroke-miterlimit="10"/><g clip-path="url(#2f9959010e)"><path stroke-linecap="round" transform="matrix(0.209304, 0, 0, -0.209637, 85.91403, 291.414355)" fill="none" stroke-linejoin="round" d="M 549.608207 6.541728 L 439.10431 6.541728 L 439.10431 117.05656 L 549.608207 117.05656 Z M 549.608207 6.541728 " stroke="#595a65" stroke-width="13" stroke-opacity="1" stroke-miterlimit="10"/></g><path stroke-linecap="round" transform="matrix(0.209304, 0, 0, -0.209637, 85.91403, 291.414326)" fill="none" stroke-linejoin="round" d="M 549.60817 117.056431 L 441.67978 9.131637 " stroke="#595a65" stroke-width="13" stroke-opacity="1" stroke-miterlimit="10"/><g clip-path="url(#8e31f0728e)"><path stroke-linecap="round" transform="matrix(0.209304, 0, 0, -0.209637, 85.91403, 291.414355)" fill="none" stroke-linejoin="round" d="M 549.608207 6.541728 L 660.112105 6.541728 L 660.112105 117.05656 L 549.608207 117.05656 Z M 549.608207 6.541728 " stroke="#595a65" stroke-width="13" stroke-opacity="1" stroke-miterlimit="10"/></g><path stroke-linecap="round" transform="matrix(0.209304, 0, 0, -0.209637, 85.91403, 291.414326)" fill="none" stroke-linejoin="round" d="M 549.60817 117.056431 L 657.536559 9.131637 " stroke="#595a65" stroke-width="13" stroke-opacity="1" stroke-miterlimit="10"/><path fill="#d7b96a" d="M 200.910156 121.675781 L 166.609375 150.027344 L 166.609375 220.902344 L 235.207031 220.902344 L 235.207031 150.027344 L 200.910156 121.675781 " fill-opacity="1" fill-rule="nonzero"/><g clip-path="url(#531a52eed1)"><path stroke-linecap="round" transform="matrix(0.209304, 0, 0, -0.209637, 85.91403, 291.414326)" fill="none" stroke-linejoin="miter" d="M 771.829047 617.214807 L 549.421539 809.679446 L 326.995368 617.214807 " stroke="#a67f57" stroke-width="27.308001" stroke-opacity="1" stroke-miterlimit="10"/></g><path fill="#595a65" d="M 205.398438 169.105469 L 194.515625 169.105469 L 194.515625 150.566406 L 205.398438 150.566406 L 205.398438 169.105469 " fill-opacity="1" fill-rule="nonzero"/><path fill="#595a65" d="M 205.855469 201.019531 L 194.964844 201.019531 L 194.964844 182.480469 L 205.855469 182.480469 L 205.855469 201.019531 " fill-opacity="1" fill-rule="nonzero"/><path fill="#c38359" d="M 200.972656 220.902344 L 166.683594 220.902344 L 176.347656 243.804688 L 225.609375 243.804688 L 235.273438 220.902344 L 200.972656 220.902344 " fill-opacity="1" fill-rule="nonzero"/><g clip-path="url(#2d5c793698)"><path fill="#eaeaea" d="M 109.730469 243.296875 C 96.574219 243.296875 85.914062 232.621094 85.914062 219.445312 L 85.914062 169.558594 C 85.914062 156.382812 96.574219 145.703125 109.730469 145.703125 C 122.886719 145.703125 133.546875 156.382812 133.546875 169.558594 L 133.546875 219.445312 C 133.546875 232.621094 122.886719 243.296875 109.730469 243.296875 " fill-opacity="1" fill-rule="nonzero"/></g><g clip-path="url(#e095d316d2)"><path fill="#9dc5da" d="M 133.546875 182.871094 L 85.914062 182.871094 L 85.914062 188.808594 L 133.546875 188.808594 L 133.546875 182.871094 " fill-opacity="1" fill-rule="nonzero"/></g><g clip-path="url(#c09c4c3e19)"><path fill="#9dc5da" d="M 85.914062 196.464844 L 85.914062 202.402344 L 133.546875 202.402344 L 133.546875 196.464844 L 85.914062 196.464844 " fill-opacity="1" fill-rule="nonzero"/></g><path fill="#f37372" d="M 113.492188 143.296875 C 113.492188 145.375 111.808594 147.0625 109.730469 147.0625 C 107.652344 147.0625 105.96875 145.375 105.96875 143.296875 C 105.96875 141.214844 107.652344 139.527344 109.730469 139.527344 C 111.808594 139.527344 113.492188 141.214844 113.492188 143.296875 " fill-opacity="1" fill-rule="nonzero"/><path fill="#ce5259" d="M 115.714844 147.0625 L 103.746094 147.0625 L 103.746094 143.894531 C 103.746094 142.933594 104.515625 142.15625 105.472656 142.15625 L 113.988281 142.15625 C 114.945312 142.15625 115.714844 142.933594 115.714844 143.894531 L 115.714844 147.0625 " fill-opacity="1" fill-rule="nonzero"/><g clip-path="url(#c11172b0fc)"><path stroke-linecap="round" transform="matrix(0.209304, 0, 0, -0.209637, 85.91403, 291.414355)" fill="none" stroke-linejoin="round" d="M 211.751079 302.403219 L 211.751079 6.541728 " stroke="#595a65" stroke-width="13.132" stroke-opacity="1" stroke-miterlimit="10"/></g><g clip-path="url(#713ad8c498)"><path stroke-linecap="round" transform="matrix(0.209304, 0, 0, -0.209637, 85.91403, 291.414355)" fill="none" stroke-linejoin="round" d="M 16.684918 302.403219 L 16.684918 6.541728 " stroke="#595a65" stroke-width="13.132" stroke-opacity="1" stroke-miterlimit="10"/></g><g clip-path="url(#9ef56a1497)"><path stroke-linecap="round" transform="matrix(0.209304, 0, 0, -0.209637, 85.91403, 291.414355)" fill="none" stroke-linejoin="round" d="M 16.684918 6.541728 L 211.751079 133.416706 " stroke="#595a65" stroke-width="13.132" stroke-opacity="1" stroke-miterlimit="10"/><path stroke-linecap="round" transform="matrix(0.209304, 0, 0, -0.209637, 85.91403, 291.414355)" fill="none" stroke-linejoin="round" d="M 211.751079 6.541728 L 16.684918 133.416706 " stroke="#595a65" stroke-width="13.132" stroke-opacity="1" stroke-miterlimit="10"/></g><path stroke-linecap="round" transform="matrix(0.209304, 0, 0, -0.209637, 85.91403, 291.414326)" fill="none" stroke-linejoin="round" d="M 16.684917 134.012847 L 211.751064 260.887833 " stroke="#595a65" stroke-width="13.132" stroke-opacity="1" stroke-miterlimit="10"/><path stroke-linecap="round" transform="matrix(0.209304, 0, 0, -0.209637, 85.91403, 291.414326)" fill="none" stroke-linejoin="round" d="M 211.751064 134.012847 L 16.684917 260.887833 " stroke="#595a65" stroke-width="13.132" stroke-opacity="1" stroke-miterlimit="10"/><path stroke-linecap="round" transform="matrix(0.209304, 0, 0, -0.209637, 85.91403, 291.414326)" fill="none" stroke-linejoin="round" d="M 16.684917 302.403103 L 211.751064 302.403103 " stroke="#595a65" stroke-width="13.154" stroke-opacity="1" stroke-miterlimit="10"/><g clip-path="url(#71e3cf0db5)"><path fill="#c6c6c6" d="M 338.003906 83.8125 L 302.242188 83.8125 L 286.78125 290.449219 L 353.464844 290.449219 L 338.003906 83.8125 " fill-opacity="1" fill-rule="nonzero"/></g><path fill="#f05861" d="M 339.410156 102.621094 L 300.835938 102.621094 L 299.863281 115.707031 L 340.390625 115.707031 L 339.410156 102.621094 " fill-opacity="1" fill-rule="nonzero"/><path fill="#f05861" d="M 298.472656 134.238281 L 341.773438 134.238281 L 340.800781 121.152344 L 299.445312 121.152344 L 298.472656 134.238281 " fill-opacity="1" fill-rule="nonzero"/><path fill="#edecec" d="M 353.824219 235.59375 C 353.824219 249.425781 328.234375 260.625 296.664062 260.625 C 265.097656 260.625 239.507812 249.425781 239.507812 235.59375 C 239.507812 221.769531 265.097656 210.566406 296.664062 210.566406 C 328.234375 210.566406 353.824219 221.769531 353.824219 235.59375 " fill-opacity="1" fill-rule="evenodd"/><path fill="#9ac671" d="M 353.808594 235.445312 L 239.492188 235.445312 L 239.492188 243.421875 L 353.808594 243.421875 L 353.808594 235.445312 " fill-opacity="1" fill-rule="nonzero"/><path fill="#eaeaea" d="M 239.492188 243.421875 L 239.492188 290.851562 L 353.808594 290.851562 L 353.808594 243.421875 L 239.492188 243.421875 " fill-opacity="1" fill-rule="nonzero"/><path fill="#595a65" d="M 353.742188 224.390625 L 239.425781 224.390625 L 239.425781 235.519531 L 353.742188 235.519531 Z M 352.105469 226.027344 L 352.105469 233.882812 L 241.0625 233.882812 L 241.0625 226.027344 L 352.105469 226.027344 " fill-opacity="1" fill-rule="nonzero"/><path stroke-linecap="round" transform="matrix(0.209304, 0, 0, -0.209637, 85.91403, 291.414326)" fill="none" stroke-linejoin="round" d="M 792.731658 314.589362 L 792.731658 272.682791 " stroke="#595a65" stroke-width="7.802" stroke-opacity="1" stroke-miterlimit="10"/><path stroke-linecap="round" transform="matrix(0.209304, 0, 0, -0.209637, 85.91403, 291.414326)" fill="none" stroke-linejoin="round" d="M 846.163956 314.757063 L 846.163956 272.831858 " stroke="#595a65" stroke-width="7.802" stroke-opacity="1" stroke-miterlimit="10"/><path stroke-linecap="round" transform="matrix(0.209304, 0, 0, -0.209637, 85.91403, 291.414326)" fill="none" stroke-linejoin="round" d="M 899.614917 314.943397 L 899.614917 272.999559 " stroke="#595a65" stroke-width="7.802" stroke-opacity="1" stroke-miterlimit="10"/><path stroke-linecap="round" transform="matrix(0.209304, 0, 0, -0.209637, 85.91403, 291.414326)" fill="none" stroke-linejoin="round" d="M 953.084541 315.111098 L 953.084541 273.148626 " stroke="#595a65" stroke-width="7.802" stroke-opacity="1" stroke-miterlimit="10"/><path stroke-linecap="round" transform="matrix(0.209304, 0, 0, -0.209637, 85.91403, 291.414326)" fill="none" stroke-linejoin="round" d="M 1006.516839 315.260165 L 1006.516839 273.353594 " stroke="#595a65" stroke-width="7.802" stroke-opacity="1" stroke-miterlimit="10"/><path stroke-linecap="round" transform="matrix(0.209304, 0, 0, -0.209637, 85.91403, 291.414326)" fill="none" stroke-linejoin="round" d="M 1059.9678 315.465133 L 1059.9678 273.502661 " stroke="#595a65" stroke-width="7.802" stroke-opacity="1" stroke-miterlimit="10"/><path stroke-linecap="round" transform="matrix(0.209304, 0, 0, -0.209637, 85.91403, 291.414326)" fill="none" stroke-linejoin="round" d="M 1113.437425 315.6142 L 1113.437425 273.651729 " stroke="#595a65" stroke-width="7.802" stroke-opacity="1" stroke-miterlimit="10"/><path stroke-linecap="round" transform="matrix(0.209304, 0, 0, -0.209637, 85.91403, 291.414326)" fill="none" stroke-linejoin="round" d="M 1166.869723 315.763268 L 1166.869723 273.856696 " stroke="#595a65" stroke-width="7.802" stroke-opacity="1" stroke-miterlimit="10"/><path stroke-linecap="round" transform="matrix(0.209304, 0, 0, -0.209637, 85.91403, 291.414326)" fill="none" stroke-linejoin="round" d="M 1220.320684 315.930969 L 1220.320684 274.005764 " stroke="#595a65" stroke-width="7.802" stroke-opacity="1" stroke-miterlimit="10"/><path fill="#9ac671" d="M 353.78125 268.160156 L 239.464844 268.160156 L 239.464844 276.136719 L 353.78125 276.136719 L 353.78125 268.160156 " fill-opacity="1" fill-rule="nonzero"/><path fill="#79a653" d="M 259.703125 257.121094 L 259.703125 261.027344 C 262.066406 261.027344 264.417969 261.421875 264.417969 259.167969 C 264.417969 256.679688 262.472656 257.121094 259.703125 257.121094 Z M 259.703125 255.246094 C 261.238281 255.246094 262.523438 255.410156 263.332031 254.796875 C 264.148438 254.171875 264.597656 251.660156 261.566406 251.660156 L 259.703125 251.660156 Z M 256.988281 263.117188 L 256.988281 249.570312 L 261.566406 249.570312 C 267.820312 249.570312 267.632812 254.917969 264.6875 256.074219 C 268.195312 256.828125 268.507812 263.117188 262.203125 263.117188 L 256.988281 263.117188 " fill-opacity="1" fill-rule="nonzero"/><path fill="#79a653" d="M 272.082031 263.117188 L 269.375 263.117188 L 269.375 249.570312 L 272.082031 249.570312 L 272.082031 263.117188 " fill-opacity="1" fill-rule="nonzero"/><path fill="#79a653" d="M 279.984375 251.496094 C 276.722656 251.496094 277.082031 255.253906 277.082031 257.570312 C 277.082031 262.527344 282.953125 262.453125 282.953125 257.570312 C 282.953125 255.925781 283.476562 251.496094 279.984375 251.496094 Z M 285.667969 257.5625 C 285.667969 263.417969 278.980469 264.859375 275.9375 261.683594 C 274.125 259.792969 274.378906 257.808594 274.378906 255.125 C 274.378906 247.375 285.667969 247.507812 285.667969 255.125 L 285.667969 257.5625 " fill-opacity="1" fill-rule="nonzero"/><path fill="#79a653" d="M 296.167969 257.488281 L 290.5 257.488281 L 290.5 263.117188 L 287.785156 263.117188 L 287.785156 249.570312 L 297.113281 249.570312 L 297.113281 251.660156 L 290.5 251.660156 L 290.5 255.394531 L 296.167969 255.394531 L 296.167969 257.488281 " fill-opacity="1" fill-rule="nonzero"/><path fill="#79a653" d="M 309.476562 249.570312 L 309.476562 258.554688 C 309.476562 263.859375 302.765625 264.277344 300.117188 262.074219 C 298.175781 260.472656 298.621094 259.011719 298.621094 249.570312 L 301.339844 249.570312 C 301.339844 259.09375 301.105469 259.667969 302.0625 260.554688 C 303.179688 261.601562 306.753906 261.789062 306.753906 258.554688 L 306.753906 249.570312 L 309.476562 249.570312 " fill-opacity="1" fill-rule="nonzero"/><path fill="#79a653" d="M 320.15625 257.164062 L 314.554688 257.164062 L 314.554688 261.027344 L 321.101562 261.027344 L 321.101562 263.117188 L 311.839844 263.117188 L 311.839844 249.570312 L 321.085938 249.570312 L 321.085938 251.660156 L 314.554688 251.660156 L 314.554688 255.066406 L 320.15625 255.066406 L 320.15625 257.164062 " fill-opacity="1" fill-rule="nonzero"/><path fill="#79a653" d="M 325.484375 261.027344 L 331.503906 261.027344 L 331.503906 263.117188 L 322.769531 263.117188 L 322.769531 249.570312 L 325.484375 249.570312 L 325.484375 261.027344 " fill-opacity="1" fill-rule="nonzero"/><g fill="#ffffff" fill-opacity="1"><g transform="translate(103.738123, 217.7838)"><g><path d="M 5.5625 -5.046875 L 2.234375 -5.046875 L 2.234375 -3.78125 L 5.234375 -3.78125 L 5.234375 -2.53125 L 2.234375 -2.53125 L 2.234375 -1.265625 L 5.65625 -1.265625 L 5.65625 0 L 0.625 0 L 0.625 -6.296875 L 5.5625 -6.296875 Z M 5.5625 -5.046875 "/></g></g></g><g fill="#ffffff" fill-opacity="1"><g transform="translate(110.254166, 217.7838)"><g><path d="M 3.046875 -6.375 C 3.992188 -6.375 4.820312 -6.140625 5.53125 -5.671875 L 4.9375 -4.421875 C 4.601562 -4.609375 4.242188 -4.765625 3.859375 -4.890625 C 3.484375 -5.015625 3.171875 -5.078125 2.921875 -5.078125 C 2.453125 -5.078125 2.21875 -4.921875 2.21875 -4.609375 C 2.21875 -4.410156 2.332031 -4.25 2.5625 -4.125 C 2.789062 -4.007812 3.066406 -3.910156 3.390625 -3.828125 C 3.722656 -3.742188 4.050781 -3.640625 4.375 -3.515625 C 4.707031 -3.390625 4.984375 -3.1875 5.203125 -2.90625 C 5.429688 -2.632812 5.546875 -2.289062 5.546875 -1.875 C 5.546875 -1.269531 5.304688 -0.796875 4.828125 -0.453125 C 4.359375 -0.117188 3.757812 0.046875 3.03125 0.046875 C 2.507812 0.046875 1.992188 -0.0390625 1.484375 -0.21875 C 0.972656 -0.394531 0.53125 -0.640625 0.15625 -0.953125 L 0.78125 -2.1875 C 1.09375 -1.90625 1.460938 -1.675781 1.890625 -1.5 C 2.328125 -1.320312 2.710938 -1.234375 3.046875 -1.234375 C 3.304688 -1.234375 3.507812 -1.28125 3.65625 -1.375 C 3.800781 -1.46875 3.875 -1.609375 3.875 -1.796875 C 3.875 -1.960938 3.789062 -2.101562 3.625 -2.21875 C 3.457031 -2.34375 3.25 -2.429688 3 -2.484375 C 2.757812 -2.546875 2.492188 -2.625 2.203125 -2.71875 C 1.910156 -2.8125 1.640625 -2.914062 1.390625 -3.03125 C 1.148438 -3.144531 0.945312 -3.328125 0.78125 -3.578125 C 0.625 -3.828125 0.546875 -4.125 0.546875 -4.46875 C 0.546875 -5.050781 0.773438 -5.515625 1.234375 -5.859375 C 1.691406 -6.203125 2.296875 -6.375 3.046875 -6.375 Z M 3.046875 -6.375 "/></g></g></g><g fill="#ffffff" fill-opacity="1"><g transform="translate(116.50021, 217.7838)"><g><path d="M 5.4375 -5.015625 L 3.546875 -5.015625 L 3.546875 0 L 1.9375 0 L 1.9375 -5.015625 L 0.0625 -5.015625 L 0.0625 -6.3125 L 5.4375 -6.3125 Z M 5.4375 -5.015625 "/></g></g></g><g fill="#ffffff" fill-opacity="1"><g transform="translate(122.449244, 217.7838)"><g><path d="M 0.625 -6.296875 L 3.34375 -6.296875 C 4.332031 -6.296875 5.132812 -6.003906 5.75 -5.421875 C 6.375 -4.835938 6.6875 -4.082031 6.6875 -3.15625 C 6.6875 -2.21875 6.367188 -1.457031 5.734375 -0.875 C 5.109375 -0.289062 4.289062 0 3.28125 0 L 0.625 0 Z M 2.234375 -5.015625 L 2.234375 -1.28125 L 3.375 -1.28125 C 3.863281 -1.28125 4.265625 -1.453125 4.578125 -1.796875 C 4.898438 -2.140625 5.0625 -2.585938 5.0625 -3.140625 C 5.0625 -3.691406 4.894531 -4.140625 4.5625 -4.484375 C 4.226562 -4.835938 3.804688 -5.015625 3.296875 -5.015625 Z M 2.234375 -5.015625 "/></g></g></g></svg>