<svg xmlns="http://www.w3.org/2000/svg" xmlns:xlink="http://www.w3.org/1999/xlink" width="500" zoomAndPan="magnify" viewBox="0 0 375 374.999991" height="500" preserveAspectRatio="xMidYMid meet" version="1.0"><defs><g/><clipPath id="1d05440201"><path d="M 18.460938 70 L 143 70 L 143 185 L 18.460938 185 Z M 18.460938 70 " clip-rule="nonzero"/></clipPath><clipPath id="21e1f2a2f8"><path d="M 121 240 L 125 240 L 125 317.917969 L 121 317.917969 Z M 121 240 " clip-rule="nonzero"/></clipPath><clipPath id="ff3b7e0144"><path d="M 73 240 L 77 240 L 77 317.917969 L 73 317.917969 Z M 73 240 " clip-rule="nonzero"/></clipPath><clipPath id="fd64c085df"><path d="M 73 282 L 125 282 L 125 317.917969 L 73 317.917969 Z M 73 282 " clip-rule="nonzero"/></clipPath><clipPath id="a535bb13b0"><path d="M 132.21875 285 L 166 285 L 166 317.738281 L 132.21875 317.738281 Z M 132.21875 285 " clip-rule="nonzero"/></clipPath><clipPath id="aadb2754c6"><path d="M 133 285 L 166 285 L 166 317.917969 L 133 317.917969 Z M 133 285 " clip-rule="nonzero"/></clipPath><clipPath id="3190503bdc"><path d="M 162 285 L 195 285 L 195 317.738281 L 162 317.738281 Z M 162 285 " clip-rule="nonzero"/></clipPath><clipPath id="c4ce404e3a"><path d="M 162 285 L 194 285 L 194 317.917969 L 162 317.917969 Z M 162 285 " clip-rule="nonzero"/></clipPath><clipPath id="ff48b4f20b"><path d="M 18.460938 56.917969 L 325 56.917969 L 325 257 L 18.460938 257 Z M 18.460938 56.917969 " clip-rule="nonzero"/></clipPath><clipPath id="554533a468"><path d="M 18.460938 134 L 79 134 L 79 258 L 18.460938 258 Z M 18.460938 134 " clip-rule="nonzero"/></clipPath><clipPath id="86bff07fca"><path d="M 18.460938 181 L 79 181 L 79 189 L 18.460938 189 Z M 18.460938 181 " clip-rule="nonzero"/></clipPath><clipPath id="02c84cbee6"><path d="M 18.460938 198 L 79 198 L 79 206 L 18.460938 206 Z M 18.460938 198 " clip-rule="nonzero"/></clipPath><clipPath id="ae5536c141"><path d="M 72 236.011719 L 76.851562 236.011719 L 76.851562 317.738281 L 72 317.738281 Z M 72 236.011719 " clip-rule="nonzero"/></clipPath><clipPath id="4b2a70353b"><path d="M 21.480469 236.011719 L 25 236.011719 L 25 317.738281 L 21.480469 317.738281 Z M 21.480469 236.011719 " clip-rule="nonzero"/></clipPath><clipPath id="49cfd3d37f"><path d="M 21.480469 280.78125 L 76.851562 280.78125 L 76.851562 317.738281 L 21.480469 317.738281 Z M 21.480469 280.78125 " clip-rule="nonzero"/></clipPath><clipPath id="192eb7d0af"><path d="M 271 56.917969 L 356 56.917969 L 356 317 L 271 317 Z M 271 56.917969 " clip-rule="nonzero"/></clipPath><clipPath id="5ad38baaaa"><path d="M 212 216 L 356.710938 216 L 356.710938 280 L 212 280 Z M 212 216 " clip-rule="nonzero"/></clipPath><clipPath id="8fea49bc8b"><path d="M 212 247 L 356.710938 247 L 356.710938 258 L 212 258 Z M 212 247 " clip-rule="nonzero"/></clipPath><clipPath id="3c14dd5888"><path d="M 212 257 L 356.710938 257 L 356.710938 317.917969 L 212 317.917969 Z M 212 257 " clip-rule="nonzero"/></clipPath><clipPath id="0ae78a0bd3"><path d="M 212 233 L 356.710938 233 L 356.710938 248 L 212 248 Z M 212 233 " clip-rule="nonzero"/></clipPath><clipPath id="1652bffc85"><path d="M 212 288 L 356.710938 288 L 356.710938 299 L 212 299 Z M 212 288 " clip-rule="nonzero"/></clipPath></defs><g clip-path="url(#1d05440201)"><path stroke-linecap="round" transform="matrix(0.263661, 0, 0, -0.26337, 18.844178, 317.733963)" fill="none" stroke-linejoin="miter" d="M 112.654844 720.333334 L 112.654844 753.615841 C 112.654844 764.591356 121.529282 773.460758 132.492694 773.460758 L 283.432212 773.460758 C 294.41044 773.460758 303.314508 764.591356 303.314508 753.615841 L 303.314508 672.530518 " stroke="#88bf58" stroke-width="11.704" stroke-opacity="1" stroke-miterlimit="10"/></g><path stroke-linecap="round" transform="matrix(0.263661, 0, 0, -0.26337, 18.844178, 317.733963)" fill="none" stroke-linejoin="round" d="M 636.868916 533.660593 L 626.987029 593.580971 " stroke="#595a65" stroke-width="6.44" stroke-opacity="1" stroke-miterlimit="10"/><path stroke-linecap="round" transform="matrix(0.263661, 0, 0, -0.26337, 18.844178, 317.733963)" fill="none" stroke-linejoin="round" d="M 636.720761 533.423284 L 696.634327 543.345743 " stroke="#595a65" stroke-width="6.44" stroke-opacity="1" stroke-miterlimit="10"/><path stroke-linecap="round" transform="matrix(0.263661, 0, 0, -0.26337, 18.844178, 317.733963)" fill="none" stroke-linejoin="round" d="M 706.36806 483.188057 L 696.441727 543.108435 " stroke="#595a65" stroke-width="6.44" stroke-opacity="1" stroke-miterlimit="10"/><path stroke-linecap="round" transform="matrix(0.263661, 0, 0, -0.26337, 18.844178, 317.733963)" fill="none" stroke-linejoin="round" d="M 706.175459 482.921085 L 766.089025 492.843543 " stroke="#595a65" stroke-width="6.44" stroke-opacity="1" stroke-miterlimit="10"/><path stroke-linecap="round" transform="matrix(0.263661, 0, 0, -0.26337, 18.844178, 317.733963)" fill="none" stroke-linejoin="round" d="M 775.852388 432.685857 L 765.940871 492.606235 " stroke="#595a65" stroke-width="6.44" stroke-opacity="1" stroke-miterlimit="10"/><path stroke-linecap="round" transform="matrix(0.263661, 0, 0, -0.26337, 18.844178, 317.733963)" fill="none" stroke-linejoin="round" d="M 775.659788 432.404053 L 835.588169 442.326512 " stroke="#595a65" stroke-width="6.44" stroke-opacity="1" stroke-miterlimit="10"/><path stroke-linecap="round" transform="matrix(0.263661, 0, 0, -0.26337, 18.844178, 317.733963)" fill="none" stroke-linejoin="round" d="M 845.307086 382.168826 L 835.425199 442.104035 " stroke="#595a65" stroke-width="6.44" stroke-opacity="1" stroke-miterlimit="10"/><path stroke-linecap="round" transform="matrix(0.263661, 0, 0, -0.26337, 18.844178, 317.733963)" fill="none" stroke-linejoin="round" d="M 845.158931 381.946349 L 905.072497 391.824312 " stroke="#595a65" stroke-width="6.44" stroke-opacity="1" stroke-miterlimit="10"/><path stroke-linecap="round" transform="matrix(0.263661, 0, 0, -0.26337, 18.844178, 317.733963)" fill="none" stroke-linejoin="round" d="M 914.80623 331.666626 L 904.879897 391.587004 " stroke="#595a65" stroke-width="6.44" stroke-opacity="1" stroke-miterlimit="10"/><path stroke-linecap="round" transform="matrix(0.263661, 0, 0, -0.26337, 18.844178, 317.733963)" fill="none" stroke-linejoin="round" d="M 914.64326 331.429318 L 974.571641 341.351776 " stroke="#595a65" stroke-width="6.44" stroke-opacity="1" stroke-miterlimit="10"/><path stroke-linecap="round" transform="matrix(0.263661, 0, 0, -0.26337, 18.844178, 317.733963)" fill="none" stroke-linejoin="round" d="M 950.229903 304.910101 L 598.511788 556.783333 L 626.601828 595.968887 L 978.319943 344.095655 Z M 950.229903 304.910101 " stroke="#595a65" stroke-width="6.44" stroke-opacity="1" stroke-miterlimit="10"/><path fill="#c38359" d="M 277.160156 227.542969 L 183.46875 160.515625 L 190.871094 150.199219 L 284.566406 217.214844 L 277.160156 227.542969 " fill-opacity="1" fill-rule="nonzero"/><path fill="#c6c6c6" d="M 98.859375 260.699219 C 83.253906 260.699219 70.609375 248.066406 70.609375 232.480469 L 70.609375 173.449219 C 70.609375 157.863281 83.253906 145.230469 98.859375 145.230469 C 114.460938 145.230469 127.109375 157.863281 127.109375 173.449219 L 127.109375 232.480469 C 127.109375 248.066406 114.460938 260.699219 98.859375 260.699219 " fill-opacity="1" fill-rule="nonzero"/><path fill="#9dc5da" d="M 127.109375 189.210938 L 70.609375 189.210938 L 70.609375 196.238281 L 127.109375 196.238281 L 127.109375 189.210938 " fill-opacity="1" fill-rule="nonzero"/><path fill="#9dc5da" d="M 70.609375 205.289062 L 70.609375 212.316406 L 127.109375 212.316406 L 127.109375 205.289062 L 70.609375 205.289062 " fill-opacity="1" fill-rule="nonzero"/><path fill="#f37372" d="M 103.320312 142.378906 C 103.320312 144.847656 101.320312 146.84375 98.859375 146.84375 C 96.398438 146.84375 94.398438 144.847656 94.398438 142.378906 C 94.398438 139.921875 96.398438 137.925781 98.859375 137.925781 C 101.320312 137.925781 103.320312 139.921875 103.320312 142.378906 " fill-opacity="1" fill-rule="nonzero"/><path fill="#ce5259" d="M 105.964844 146.84375 L 91.753906 146.84375 L 91.753906 143.078125 C 91.753906 141.957031 92.679688 141.03125 93.800781 141.03125 L 103.917969 141.03125 C 105.050781 141.03125 105.964844 141.957031 105.964844 143.078125 L 105.964844 146.84375 " fill-opacity="1" fill-rule="nonzero"/><g clip-path="url(#21e1f2a2f8)"><path stroke-linecap="round" transform="matrix(0.263661, 0, 0, -0.26337, 18.844178, 317.733963)" fill="none" stroke-linejoin="round" d="M 395.747925 285.183838 L 395.747925 6.554081 " stroke="#595a65" stroke-width="12.367" stroke-opacity="1" stroke-miterlimit="10"/></g><g clip-path="url(#ff3b7e0144)"><path stroke-linecap="round" transform="matrix(0.263661, 0, 0, -0.26337, 18.844178, 317.733963)" fill="none" stroke-linejoin="round" d="M 212.036694 285.183838 L 212.036694 6.554081 " stroke="#595a65" stroke-width="12.367" stroke-opacity="1" stroke-miterlimit="10"/></g><g clip-path="url(#fd64c085df)"><path stroke-linecap="round" transform="matrix(0.263661, 0, 0, -0.26337, 18.844178, 317.733963)" fill="none" stroke-linejoin="round" d="M 212.036694 6.554081 L 395.747925 126.038874 " stroke="#595a65" stroke-width="12.367" stroke-opacity="1" stroke-miterlimit="10"/><path stroke-linecap="round" transform="matrix(0.263661, 0, 0, -0.26337, 18.844178, 317.733963)" fill="none" stroke-linejoin="round" d="M 395.747925 6.554081 L 212.036694 126.038874 " stroke="#595a65" stroke-width="12.367" stroke-opacity="1" stroke-miterlimit="10"/></g><path stroke-linecap="round" transform="matrix(0.263661, 0, 0, -0.26337, 18.844178, 317.733963)" fill="none" stroke-linejoin="round" d="M 212.036694 126.58765 L 395.747925 246.087275 " stroke="#595a65" stroke-width="12.367" stroke-opacity="1" stroke-miterlimit="10"/><path stroke-linecap="round" transform="matrix(0.263661, 0, 0, -0.26337, 18.844178, 317.733963)" fill="none" stroke-linejoin="round" d="M 395.747925 126.58765 L 212.036694 246.087275 " stroke="#595a65" stroke-width="12.367" stroke-opacity="1" stroke-miterlimit="10"/><path stroke-linecap="round" transform="matrix(0.263661, 0, 0, -0.26337, 18.844178, 317.733963)" fill="none" stroke-linejoin="round" d="M 212.036694 285.183838 L 395.747925 285.183838 " stroke="#595a65" stroke-width="12.388" stroke-opacity="1" stroke-miterlimit="10"/><path stroke-linecap="round" transform="matrix(0.263661, 0, 0, -0.26337, 18.844178, 317.733963)" fill="none" stroke-linejoin="round" d="M 549.606081 117.050818 L 439.097849 117.050818 L 439.097849 227.562386 L 549.606081 227.562386 Z M 549.606081 117.050818 " stroke="#595a65" stroke-width="13" stroke-opacity="1" stroke-miterlimit="10"/><path stroke-linecap="round" transform="matrix(0.263661, 0, 0, -0.26337, 18.844178, 317.733963)" fill="none" stroke-linejoin="round" d="M 549.606081 227.562386 L 441.675733 119.631547 " stroke="#595a65" stroke-width="13" stroke-opacity="1" stroke-miterlimit="10"/><path stroke-linecap="round" transform="matrix(0.263661, 0, 0, -0.26337, 18.844178, 317.733963)" fill="none" stroke-linejoin="round" d="M 549.606081 117.050818 L 660.114313 117.050818 L 660.114313 227.562386 L 549.606081 227.562386 Z M 549.606081 117.050818 " stroke="#595a65" stroke-width="13" stroke-opacity="1" stroke-miterlimit="10"/><path stroke-linecap="round" transform="matrix(0.263661, 0, 0, -0.26337, 18.844178, 317.733963)" fill="none" stroke-linejoin="round" d="M 549.606081 227.562386 L 657.536429 119.631547 " stroke="#595a65" stroke-width="13" stroke-opacity="1" stroke-miterlimit="10"/><g clip-path="url(#a535bb13b0)"><path stroke-linecap="round" transform="matrix(0.263661, 0, 0, -0.26337, 18.844178, 317.733992)" fill="none" stroke-linejoin="round" d="M 549.606081 6.554191 L 439.097849 6.554191 L 439.097849 117.050927 L 549.606081 117.050927 Z M 549.606081 6.554191 " stroke="#595a65" stroke-width="13" stroke-opacity="1" stroke-miterlimit="10"/></g><g clip-path="url(#aadb2754c6)"><path stroke-linecap="round" transform="matrix(0.263661, 0, 0, -0.26337, 18.844178, 317.733963)" fill="none" stroke-linejoin="round" d="M 549.606081 117.050818 L 441.675733 9.134811 " stroke="#595a65" stroke-width="13" stroke-opacity="1" stroke-miterlimit="10"/></g><g clip-path="url(#3190503bdc)"><path stroke-linecap="round" transform="matrix(0.263661, 0, 0, -0.26337, 18.844178, 317.733992)" fill="none" stroke-linejoin="round" d="M 549.606081 6.554191 L 660.114313 6.554191 L 660.114313 117.050927 L 549.606081 117.050927 Z M 549.606081 6.554191 " stroke="#595a65" stroke-width="13" stroke-opacity="1" stroke-miterlimit="10"/></g><g clip-path="url(#c4ce404e3a)"><path stroke-linecap="round" transform="matrix(0.263661, 0, 0, -0.26337, 18.844178, 317.733963)" fill="none" stroke-linejoin="round" d="M 549.606081 117.050818 L 657.536429 9.134811 " stroke="#595a65" stroke-width="13" stroke-opacity="1" stroke-miterlimit="10"/></g><path fill="#d7b96a" d="M 163.703125 104.488281 L 120.496094 140.105469 L 120.496094 229.148438 L 206.910156 229.148438 L 206.910156 140.105469 L 163.703125 104.488281 " fill-opacity="1" fill-rule="nonzero"/><g clip-path="url(#ff48b4f20b)"><path stroke-linecap="round" transform="matrix(0.263661, 0, 0, -0.26337, 18.844178, 317.733963)" fill="none" stroke-linejoin="miter" d="M 771.837409 617.207991 L 549.41348 809.679957 L 326.989552 617.207991 " stroke="#a67f57" stroke-width="27.308001" stroke-opacity="1" stroke-miterlimit="10"/></g><path fill="#595a65" d="M 169.359375 164.078125 L 155.648438 164.078125 L 155.648438 140.785156 L 169.359375 140.785156 L 169.359375 164.078125 " fill-opacity="1" fill-rule="nonzero"/><path fill="#595a65" d="M 169.933594 204.167969 L 156.214844 204.167969 L 156.214844 180.878906 L 169.933594 180.878906 L 169.933594 204.167969 " fill-opacity="1" fill-rule="nonzero"/><path fill="#c38359" d="M 163.785156 229.148438 L 120.589844 229.148438 L 132.765625 257.921875 L 194.816406 257.921875 L 206.992188 229.148438 L 163.785156 229.148438 " fill-opacity="1" fill-rule="nonzero"/><g clip-path="url(#554533a468)"><path fill="#eaeaea" d="M 48.847656 257.285156 C 32.273438 257.285156 18.84375 243.871094 18.84375 227.316406 L 18.84375 164.644531 C 18.84375 148.089844 32.273438 134.675781 48.847656 134.675781 C 65.417969 134.675781 78.847656 148.089844 78.847656 164.644531 L 78.847656 227.316406 C 78.847656 243.871094 65.417969 257.285156 48.847656 257.285156 " fill-opacity="1" fill-rule="nonzero"/></g><g clip-path="url(#86bff07fca)"><path fill="#9dc5da" d="M 78.847656 181.371094 L 18.84375 181.371094 L 18.84375 188.828125 L 78.847656 188.828125 L 78.847656 181.371094 " fill-opacity="1" fill-rule="nonzero"/></g><g clip-path="url(#02c84cbee6)"><path fill="#9dc5da" d="M 18.84375 198.449219 L 18.84375 205.90625 L 78.847656 205.90625 L 78.847656 198.449219 L 18.84375 198.449219 " fill-opacity="1" fill-rule="nonzero"/></g><path fill="#f37372" d="M 53.582031 131.648438 C 53.582031 134.261719 51.460938 136.382812 48.847656 136.382812 C 46.230469 136.382812 44.109375 134.261719 44.109375 131.648438 C 44.109375 129.035156 46.230469 126.917969 48.847656 126.917969 C 51.460938 126.917969 53.582031 129.035156 53.582031 131.648438 " fill-opacity="1" fill-rule="nonzero"/><path fill="#ce5259" d="M 56.386719 136.382812 L 41.308594 136.382812 L 41.308594 132.402344 C 41.308594 131.195312 42.273438 130.21875 43.480469 130.21875 L 54.210938 130.21875 C 55.417969 130.21875 56.386719 131.195312 56.386719 132.402344 L 56.386719 136.382812 " fill-opacity="1" fill-rule="nonzero"/><g clip-path="url(#ae5536c141)"><path stroke-linecap="round" transform="matrix(0.263661, 0, 0, -0.26337, 18.844178, 317.733992)" fill="none" stroke-linejoin="round" d="M 211.755201 302.40364 L 211.755201 6.554191 " stroke="#595a65" stroke-width="13.132" stroke-opacity="1" stroke-miterlimit="10"/></g><g clip-path="url(#4b2a70353b)"><path stroke-linecap="round" transform="matrix(0.263661, 0, 0, -0.26337, 18.844178, 317.733992)" fill="none" stroke-linejoin="round" d="M 16.680541 302.40364 L 16.680541 6.554191 " stroke="#595a65" stroke-width="13.132" stroke-opacity="1" stroke-miterlimit="10"/></g><g clip-path="url(#49cfd3d37f)"><path stroke-linecap="round" transform="matrix(0.263661, 0, 0, -0.26337, 18.844178, 317.733992)" fill="none" stroke-linejoin="round" d="M 16.680541 6.554191 L 211.755201 133.425209 " stroke="#595a65" stroke-width="13.132" stroke-opacity="1" stroke-miterlimit="10"/><path stroke-linecap="round" transform="matrix(0.263661, 0, 0, -0.26337, 18.844178, 317.733992)" fill="none" stroke-linejoin="round" d="M 211.755201 6.554191 L 16.680541 133.425209 " stroke="#595a65" stroke-width="13.132" stroke-opacity="1" stroke-miterlimit="10"/></g><path stroke-linecap="round" transform="matrix(0.263661, 0, 0, -0.26337, 18.844178, 317.733963)" fill="none" stroke-linejoin="round" d="M 16.680541 134.003538 L 211.755201 260.889388 " stroke="#595a65" stroke-width="13.132" stroke-opacity="1" stroke-miterlimit="10"/><path stroke-linecap="round" transform="matrix(0.263661, 0, 0, -0.26337, 18.844178, 317.733963)" fill="none" stroke-linejoin="round" d="M 211.755201 134.003538 L 16.680541 260.889388 " stroke="#595a65" stroke-width="13.132" stroke-opacity="1" stroke-miterlimit="10"/><path stroke-linecap="round" transform="matrix(0.263661, 0, 0, -0.26337, 18.844178, 317.733963)" fill="none" stroke-linejoin="round" d="M 16.680541 302.403531 L 211.755201 302.403531 " stroke="#595a65" stroke-width="13.154" stroke-opacity="1" stroke-miterlimit="10"/><g clip-path="url(#192eb7d0af)"><path fill="#c6c6c6" d="M 336.402344 56.917969 L 291.351562 56.917969 L 271.875 316.523438 L 355.878906 316.523438 L 336.402344 56.917969 " fill-opacity="1" fill-rule="nonzero"/></g><path fill="#f05861" d="M 338.171875 80.550781 L 289.582031 80.550781 L 288.355469 96.988281 L 339.410156 96.988281 L 338.171875 80.550781 " fill-opacity="1" fill-rule="nonzero"/><path fill="#f05861" d="M 286.605469 120.269531 L 341.148438 120.269531 L 339.921875 103.832031 L 287.828125 103.832031 L 286.605469 120.269531 " fill-opacity="1" fill-rule="nonzero"/><g clip-path="url(#5ad38baaaa)"><path fill="#edecec" d="M 356.332031 247.605469 C 356.332031 264.980469 324.09375 279.054688 284.328125 279.054688 C 244.5625 279.054688 212.324219 264.980469 212.324219 247.605469 C 212.324219 230.238281 244.5625 216.164062 284.328125 216.164062 C 324.09375 216.164062 356.332031 230.238281 356.332031 247.605469 " fill-opacity="1" fill-rule="evenodd"/></g><g clip-path="url(#8fea49bc8b)"><path fill="#9ac671" d="M 356.308594 247.417969 L 212.304688 247.417969 L 212.304688 257.441406 L 356.308594 257.441406 L 356.308594 247.417969 " fill-opacity="1" fill-rule="nonzero"/></g><g clip-path="url(#3c14dd5888)"><path fill="#eaeaea" d="M 212.304688 257.441406 L 212.304688 317.027344 L 356.308594 317.027344 L 356.308594 257.441406 L 212.304688 257.441406 " fill-opacity="1" fill-rule="nonzero"/></g><g clip-path="url(#0ae78a0bd3)"><path fill="#595a65" d="M 356.226562 233.53125 L 212.222656 233.53125 L 212.222656 247.511719 L 356.226562 247.511719 Z M 354.167969 235.589844 L 354.167969 245.453125 L 214.28125 245.453125 L 214.28125 235.589844 L 354.167969 235.589844 " fill-opacity="1" fill-rule="nonzero"/></g><path stroke-linecap="round" transform="matrix(0.263661, 0, 0, -0.26337, 18.844178, 317.733963)" fill="none" stroke-linejoin="round" d="M 792.727153 314.595251 L 792.727153 272.68065 " stroke="#595a65" stroke-width="7.802" stroke-opacity="1" stroke-miterlimit="10"/><path stroke-linecap="round" transform="matrix(0.263661, 0, 0, -0.26337, 18.844178, 317.733963)" fill="none" stroke-linejoin="round" d="M 846.16638 314.758401 L 846.16638 272.8438 " stroke="#595a65" stroke-width="7.802" stroke-opacity="1" stroke-miterlimit="10"/><path stroke-linecap="round" transform="matrix(0.263661, 0, 0, -0.26337, 18.844178, 317.733963)" fill="none" stroke-linejoin="round" d="M 899.605607 314.951214 L 899.605607 272.992118 " stroke="#595a65" stroke-width="7.802" stroke-opacity="1" stroke-miterlimit="10"/><path stroke-linecap="round" transform="matrix(0.263661, 0, 0, -0.26337, 18.844178, 317.733963)" fill="none" stroke-linejoin="round" d="M 953.08928 315.099532 L 953.08928 273.155267 " stroke="#595a65" stroke-width="7.802" stroke-opacity="1" stroke-miterlimit="10"/><path stroke-linecap="round" transform="matrix(0.263661, 0, 0, -0.26337, 18.844178, 317.733963)" fill="none" stroke-linejoin="round" d="M 1006.528506 315.262681 L 1006.528506 273.34808 " stroke="#595a65" stroke-width="7.802" stroke-opacity="1" stroke-miterlimit="10"/><path stroke-linecap="round" transform="matrix(0.263661, 0, 0, -0.26337, 18.844178, 317.733963)" fill="none" stroke-linejoin="round" d="M 1059.967733 315.455494 L 1059.967733 273.496398 " stroke="#595a65" stroke-width="7.802" stroke-opacity="1" stroke-miterlimit="10"/><path stroke-linecap="round" transform="matrix(0.263661, 0, 0, -0.26337, 18.844178, 317.733963)" fill="none" stroke-linejoin="round" d="M 1113.43659 315.618644 L 1113.43659 273.659548 " stroke="#595a65" stroke-width="7.802" stroke-opacity="1" stroke-miterlimit="10"/><path stroke-linecap="round" transform="matrix(0.263661, 0, 0, -0.26337, 18.844178, 317.733963)" fill="none" stroke-linejoin="round" d="M 1166.875817 315.766962 L 1166.875817 273.852361 " stroke="#595a65" stroke-width="7.802" stroke-opacity="1" stroke-miterlimit="10"/><path stroke-linecap="round" transform="matrix(0.263661, 0, 0, -0.26337, 18.844178, 317.733963)" fill="none" stroke-linejoin="round" d="M 1220.315044 315.930111 L 1220.315044 274.01551 " stroke="#595a65" stroke-width="7.802" stroke-opacity="1" stroke-miterlimit="10"/><g clip-path="url(#1652bffc85)"><path fill="#9ac671" d="M 356.277344 288.519531 L 212.273438 288.519531 L 212.273438 298.539062 L 356.277344 298.539062 L 356.277344 288.519531 " fill-opacity="1" fill-rule="nonzero"/></g><path fill="#79a653" d="M 237.765625 274.652344 L 237.765625 279.558594 C 240.742188 279.558594 243.707031 280.050781 243.707031 277.222656 C 243.707031 274.097656 241.257812 274.652344 237.765625 274.652344 Z M 237.765625 272.296875 C 239.703125 272.296875 241.320312 272.5 242.339844 271.730469 C 243.367188 270.949219 243.933594 267.789062 240.113281 267.789062 L 237.765625 267.789062 Z M 234.347656 282.183594 L 234.347656 265.167969 L 240.113281 265.167969 C 247.992188 265.167969 247.753906 271.882812 244.046875 273.335938 C 248.464844 274.28125 248.859375 282.183594 240.917969 282.183594 L 234.347656 282.183594 " fill-opacity="1" fill-rule="nonzero"/><path fill="#79a653" d="M 253.359375 282.183594 L 249.949219 282.183594 L 249.949219 265.167969 L 253.359375 265.167969 L 253.359375 282.183594 " fill-opacity="1" fill-rule="nonzero"/><path fill="#79a653" d="M 263.316406 267.582031 C 259.207031 267.582031 259.660156 272.304688 259.660156 275.21875 C 259.660156 281.441406 267.054688 281.347656 267.054688 275.21875 C 267.054688 273.148438 267.714844 267.582031 263.316406 267.582031 Z M 270.476562 275.207031 C 270.476562 282.5625 262.050781 284.375 258.21875 280.382812 C 255.933594 278.003906 256.253906 275.515625 256.253906 272.140625 C 256.253906 262.410156 270.476562 262.574219 270.476562 272.140625 L 270.476562 275.207031 " fill-opacity="1" fill-rule="nonzero"/><path fill="#79a653" d="M 283.699219 275.113281 L 276.5625 275.113281 L 276.5625 282.183594 L 273.144531 282.183594 L 273.144531 265.167969 L 284.894531 265.167969 L 284.894531 267.789062 L 276.5625 267.789062 L 276.5625 272.480469 L 283.699219 272.480469 L 283.699219 275.113281 " fill-opacity="1" fill-rule="nonzero"/><path fill="#79a653" d="M 300.46875 265.167969 L 300.46875 276.453125 C 300.46875 283.117188 292.011719 283.644531 288.675781 280.875 C 286.234375 278.859375 286.789062 277.027344 286.789062 265.167969 L 290.21875 265.167969 C 290.21875 277.132812 289.921875 277.851562 291.125 278.960938 C 292.535156 280.277344 297.039062 280.515625 297.039062 276.453125 L 297.039062 265.167969 L 300.46875 265.167969 " fill-opacity="1" fill-rule="nonzero"/><path fill="#79a653" d="M 313.917969 274.703125 L 306.863281 274.703125 L 306.863281 279.558594 L 315.113281 279.558594 L 315.113281 282.183594 L 303.445312 282.183594 L 303.445312 265.167969 L 315.09375 265.167969 L 315.09375 267.789062 L 306.863281 267.789062 L 306.863281 272.070312 L 313.917969 272.070312 L 313.917969 274.703125 " fill-opacity="1" fill-rule="nonzero"/><path fill="#79a653" d="M 320.632812 279.558594 L 328.214844 279.558594 L 328.214844 282.183594 L 317.214844 282.183594 L 317.214844 265.167969 L 320.632812 265.167969 L 320.632812 279.558594 " fill-opacity="1" fill-rule="nonzero"/><g fill="#ffffff" fill-opacity="1"><g transform="translate(103.738123, 217.7838)"><g><path d="M 5.5625 -5.046875 L 2.234375 -5.046875 L 2.234375 -3.78125 L 5.234375 -3.78125 L 5.234375 -2.53125 L 2.234375 -2.53125 L 2.234375 -1.265625 L 5.65625 -1.265625 L 5.65625 0 L 0.625 0 L 0.625 -6.296875 L 5.5625 -6.296875 Z M 5.5625 -5.046875 "/></g></g></g><g fill="#ffffff" fill-opacity="1"><g transform="translate(110.254166, 217.7838)"><g><path d="M 3.046875 -6.375 C 3.992188 -6.375 4.820312 -6.140625 5.53125 -5.671875 L 4.9375 -4.421875 C 4.601562 -4.609375 4.242188 -4.765625 3.859375 -4.890625 C 3.484375 -5.015625 3.171875 -5.078125 2.921875 -5.078125 C 2.453125 -5.078125 2.21875 -4.921875 2.21875 -4.609375 C 2.21875 -4.410156 2.332031 -4.25 2.5625 -4.125 C 2.789062 -4.007812 3.066406 -3.910156 3.390625 -3.828125 C 3.722656 -3.742188 4.050781 -3.640625 4.375 -3.515625 C 4.707031 -3.390625 4.984375 -3.1875 5.203125 -2.90625 C 5.429688 -2.632812 5.546875 -2.289062 5.546875 -1.875 C 5.546875 -1.269531 5.304688 -0.796875 4.828125 -0.453125 C 4.359375 -0.117188 3.757812 0.046875 3.03125 0.046875 C 2.507812 0.046875 1.992188 -0.0390625 1.484375 -0.21875 C 0.972656 -0.394531 0.53125 -0.640625 0.15625 -0.953125 L 0.78125 -2.1875 C 1.09375 -1.90625 1.460938 -1.675781 1.890625 -1.5 C 2.328125 -1.320312 2.710938 -1.234375 3.046875 -1.234375 C 3.304688 -1.234375 3.507812 -1.28125 3.65625 -1.375 C 3.800781 -1.46875 3.875 -1.609375 3.875 -1.796875 C 3.875 -1.960938 3.789062 -2.101562 3.625 -2.21875 C 3.457031 -2.34375 3.25 -2.429688 3 -2.484375 C 2.757812 -2.546875 2.492188 -2.625 2.203125 -2.71875 C 1.910156 -2.8125 1.640625 -2.914062 1.390625 -3.03125 C 1.148438 -3.144531 0.945312 -3.328125 0.78125 -3.578125 C 0.625 -3.828125 0.546875 -4.125 0.546875 -4.46875 C 0.546875 -5.050781 0.773438 -5.515625 1.234375 -5.859375 C 1.691406 -6.203125 2.296875 -6.375 3.046875 -6.375 Z M 3.046875 -6.375 "/></g></g></g><g fill="#ffffff" fill-opacity="1"><g transform="translate(116.50021, 217.7838)"><g><path d="M 5.4375 -5.015625 L 3.546875 -5.015625 L 3.546875 0 L 1.9375 0 L 1.9375 -5.015625 L 0.0625 -5.015625 L 0.0625 -6.3125 L 5.4375 -6.3125 Z M 5.4375 -5.015625 "/></g></g></g><g fill="#ffffff" fill-opacity="1"><g transform="translate(122.449244, 217.7838)"><g><path d="M 0.625 -6.296875 L 3.34375 -6.296875 C 4.332031 -6.296875 5.132812 -6.003906 5.75 -5.421875 C 6.375 -4.835938 6.6875 -4.082031 6.6875 -3.15625 C 6.6875 -2.21875 6.367188 -1.457031 5.734375 -0.875 C 5.109375 -0.289062 4.289062 0 3.28125 0 L 0.625 0 Z M 2.234375 -5.015625 L 2.234375 -1.28125 L 3.375 -1.28125 C 3.863281 -1.28125 4.265625 -1.453125 4.578125 -1.796875 C 4.898438 -2.140625 5.0625 -2.585938 5.0625 -3.140625 C 5.0625 -3.691406 4.894531 -4.140625 4.5625 -4.484375 C 4.226562 -4.835938 3.804688 -5.015625 3.296875 -5.015625 Z M 2.234375 -5.015625 "/></g></g></g></svg>