<svg xmlns="http://www.w3.org/2000/svg" xmlns:xlink="http://www.w3.org/1999/xlink" width="500" zoomAndPan="magnify" viewBox="0 0 375 374.999991" height="500" preserveAspectRatio="xMidYMid meet" version="1.0"><defs><g/><clipPath id="9bf455c7bc"><path d="M 37.5 37.5 L 345.75 37.5 L 345.75 324.75 L 37.5 324.75 Z M 37.5 37.5 " clip-rule="nonzero"/></clipPath></defs><g clip-path="url(#9bf455c7bc)"><path fill="#ff5757" d="M 95.058594 37.625 C 109.199219 37.625 120.664062 45.675781 120.664062 64.25 C 120.664062 82.820312 109.199219 97.878906 95.058594 97.878906 C 80.917969 97.878906 69.457031 82.820312 69.457031 64.25 C 69.457031 45.675781 80.917969 37.625 95.058594 37.625 Z M 209.566406 278.675781 C 216.453125 278.675781 222.632812 281.707031 226.839844 286.507812 L 277.238281 286.507812 C 281.445312 281.707031 287.625 278.675781 294.511719 278.675781 C 307.191406 278.675781 317.46875 288.949219 317.46875 301.621094 C 317.46875 314.292969 307.191406 324.5625 294.511719 324.5625 C 281.832031 324.5625 271.554688 314.292969 271.554688 301.621094 C 271.554688 301.253906 271.5625 300.890625 271.578125 300.527344 L 232.5 300.527344 C 232.515625 300.890625 232.527344 301.253906 232.527344 301.621094 C 232.527344 314.292969 222.25 324.5625 209.570312 324.5625 C 196.890625 324.5625 186.609375 314.292969 186.609375 301.621094 C 186.609375 301.242188 186.621094 300.871094 186.636719 300.5 C 179.914062 300.183594 173.832031 297.308594 169.359375 292.839844 C 164.609375 288.09375 161.664062 281.542969 161.664062 274.332031 C 161.664062 267.121094 164.609375 260.570312 169.359375 255.824219 C 172.140625 253.046875 175.542969 250.882812 179.335938 249.570312 L 152.601562 138.902344 C 152.542969 138.652344 152.410156 138.445312 152.234375 138.308594 C 152.070312 138.179688 151.839844 138.105469 151.566406 138.105469 L 135.539062 138.105469 C 131.667969 138.105469 128.523438 134.96875 128.523438 131.09375 C 128.523438 127.222656 131.667969 124.085938 135.539062 124.085938 L 151.566406 124.085938 C 155.058594 124.085938 158.304688 125.261719 160.894531 127.300781 C 163.46875 129.328125 165.371094 132.203125 166.195312 135.617188 L 172.988281 163.742188 L 335.414062 163.742188 C 336.480469 163.742188 337.515625 163.90625 338.496094 164.207031 C 342.949219 165.582031 345.75 169.796875 345.75 174.390625 C 345.75 175.496094 345.582031 176.640625 345.226562 177.796875 L 326.894531 237.183594 C 324.941406 243.511719 321.109375 248.789062 316.105469 252.488281 C 311.089844 256.191406 304.921875 258.308594 298.308594 258.308594 L 239.742188 258.308594 C 238.613281 260.585938 236.261719 262.15625 233.554688 262.15625 L 187.875 262.15625 C 184.53125 262.15625 181.488281 263.527344 179.277344 265.738281 C 177.066406 267.949219 175.691406 270.992188 175.691406 274.332031 C 175.691406 277.671875 177.066406 280.714844 179.277344 282.925781 C 181.488281 285.132812 184.53125 286.507812 187.875 286.507812 L 192.296875 286.507812 C 196.503906 281.707031 202.679688 278.675781 209.566406 278.675781 Z M 174.652344 170.636719 L 179.980469 192.683594 L 216.667969 192.683594 L 216.667969 170.636719 Z M 181.644531 199.578125 L 187.039062 221.90625 L 216.667969 221.90625 L 216.667969 199.578125 Z M 188.703125 228.800781 L 193.375 248.136719 L 216.667969 248.136719 L 216.667969 228.800781 Z M 223.570312 248.136719 L 233.554688 248.136719 C 236.03125 248.136719 238.207031 249.449219 239.425781 251.414062 L 254.394531 251.414062 L 254.394531 228.800781 L 223.570312 228.800781 Z M 223.570312 221.90625 L 254.394531 221.90625 L 254.394531 199.578125 L 223.570312 199.578125 Z M 261.292969 221.90625 L 292.117188 221.90625 L 292.117188 199.578125 L 261.292969 199.578125 Z M 299.019531 221.90625 L 324.410156 221.90625 L 331.300781 199.578125 L 299.019531 199.578125 Z M 322.28125 228.800781 L 299.015625 228.800781 L 299.015625 251.402344 C 303.867188 251.257812 308.351562 249.664062 312.007812 246.964844 C 315.859375 244.121094 318.808594 240.050781 320.316406 235.164062 Z M 292.117188 228.800781 L 261.292969 228.800781 L 261.292969 251.414062 L 292.117188 251.414062 Z M 223.570312 192.683594 L 254.394531 192.683594 L 254.394531 170.636719 L 223.570312 170.636719 Z M 261.292969 192.683594 L 292.117188 192.683594 L 292.117188 170.636719 L 261.292969 170.636719 Z M 299.019531 192.683594 L 333.429688 192.683594 L 338.648438 175.777344 C 338.785156 175.332031 338.851562 174.863281 338.851562 174.390625 C 338.851562 172.832031 338.03125 171.261719 336.472656 170.78125 C 336.171875 170.6875 335.820312 170.636719 335.414062 170.636719 L 299.015625 170.636719 L 299.015625 192.683594 Z M 209.566406 292.277344 C 204.40625 292.277344 200.21875 296.460938 200.21875 301.621094 C 200.21875 306.78125 204.40625 310.960938 209.566406 310.960938 C 214.730469 310.960938 218.914062 306.78125 218.914062 301.621094 C 218.914062 296.460938 214.730469 292.277344 209.566406 292.277344 Z M 294.511719 292.277344 C 289.347656 292.277344 285.164062 296.460938 285.164062 301.621094 C 285.164062 306.78125 289.347656 310.960938 294.511719 310.960938 C 299.671875 310.960938 303.859375 306.78125 303.859375 301.621094 C 303.859375 296.460938 299.671875 292.277344 294.511719 292.277344 Z M 128.230469 317.8125 C 128.230469 260.632812 128.230469 203.453125 128.230469 146.273438 C 122.585938 143.550781 118.6875 137.777344 118.6875 131.09375 C 118.6875 121.800781 126.238281 114.253906 135.539062 114.253906 L 145.417969 114.253906 C 140.933594 110.378906 134.78125 107.722656 128.230469 106.097656 C 106.433594 100.695312 84.339844 100.328125 61.890625 106.097656 C 48.9375 109.425781 37.5 116.578125 37.5 129.386719 L 37.5 199.234375 C 37.5 208.34375 43.050781 216.269531 51.078125 220.09375 L 51.078125 142.105469 C 51.078125 139.121094 53.5 136.703125 56.484375 136.703125 C 59.46875 136.703125 61.890625 139.121094 61.890625 142.105469 C 61.890625 200.675781 61.890625 259.242188 61.890625 317.8125 C 61.890625 321.53125 64.925781 324.566406 68.644531 324.566406 L 90.566406 324.566406 L 90.566406 228.960938 C 90.566406 225.980469 92.988281 223.5625 95.972656 223.5625 C 98.957031 223.5625 101.378906 225.980469 101.378906 228.960938 L 101.378906 324.566406 L 121.472656 324.566406 C 125.195312 324.566406 128.230469 321.53125 128.230469 317.8125 Z M 139.039062 147.933594 L 139.039062 220.089844 C 147.070312 216.269531 152.621094 208.339844 152.621094 199.234375 L 152.621094 180.863281 L 144.664062 147.933594 Z M 139.039062 147.933594 " fill-opacity="1" fill-rule="evenodd"/></g><g fill="#ffffff" fill-opacity="1"><g transform="translate(103.738123, 217.7838)"><g><path d="M 5.5625 -5.046875 L 2.234375 -5.046875 L 2.234375 -3.78125 L 5.234375 -3.78125 L 5.234375 -2.53125 L 2.234375 -2.53125 L 2.234375 -1.265625 L 5.65625 -1.265625 L 5.65625 0 L 0.625 0 L 0.625 -6.296875 L 5.5625 -6.296875 Z M 5.5625 -5.046875 "/></g></g></g><g fill="#ffffff" fill-opacity="1"><g transform="translate(110.254166, 217.7838)"><g><path d="M 3.046875 -6.375 C 3.992188 -6.375 4.820312 -6.140625 5.53125 -5.671875 L 4.9375 -4.421875 C 4.601562 -4.609375 4.242188 -4.765625 3.859375 -4.890625 C 3.484375 -5.015625 3.171875 -5.078125 2.921875 -5.078125 C 2.453125 -5.078125 2.21875 -4.921875 2.21875 -4.609375 C 2.21875 -4.410156 2.332031 -4.25 2.5625 -4.125 C 2.789062 -4.007812 3.066406 -3.910156 3.390625 -3.828125 C 3.722656 -3.742188 4.050781 -3.640625 4.375 -3.515625 C 4.707031 -3.390625 4.984375 -3.1875 5.203125 -2.90625 C 5.429688 -2.632812 5.546875 -2.289062 5.546875 -1.875 C 5.546875 -1.269531 5.304688 -0.796875 4.828125 -0.453125 C 4.359375 -0.117188 3.757812 0.046875 3.03125 0.046875 C 2.507812 0.046875 1.992188 -0.0390625 1.484375 -0.21875 C 0.972656 -0.394531 0.53125 -0.640625 0.15625 -0.953125 L 0.78125 -2.1875 C 1.09375 -1.90625 1.460938 -1.675781 1.890625 -1.5 C 2.328125 -1.320312 2.710938 -1.234375 3.046875 -1.234375 C 3.304688 -1.234375 3.507812 -1.28125 3.65625 -1.375 C 3.800781 -1.46875 3.875 -1.609375 3.875 -1.796875 C 3.875 -1.960938 3.789062 -2.101562 3.625 -2.21875 C 3.457031 -2.34375 3.25 -2.429688 3 -2.484375 C 2.757812 -2.546875 2.492188 -2.625 2.203125 -2.71875 C 1.910156 -2.8125 1.640625 -2.914062 1.390625 -3.03125 C 1.148438 -3.144531 0.945312 -3.328125 0.78125 -3.578125 C 0.625 -3.828125 0.546875 -4.125 0.546875 -4.46875 C 0.546875 -5.050781 0.773438 -5.515625 1.234375 -5.859375 C 1.691406 -6.203125 2.296875 -6.375 3.046875 -6.375 Z M 3.046875 -6.375 "/></g></g></g><g fill="#ffffff" fill-opacity="1"><g transform="translate(116.50021, 217.7838)"><g><path d="M 5.4375 -5.015625 L 3.546875 -5.015625 L 3.546875 0 L 1.9375 0 L 1.9375 -5.015625 L 0.0625 -5.015625 L 0.0625 -6.3125 L 5.4375 -6.3125 Z M 5.4375 -5.015625 "/></g></g></g><g fill="#ffffff" fill-opacity="1"><g transform="translate(122.449244, 217.7838)"><g><path d="M 0.625 -6.296875 L 3.34375 -6.296875 C 4.332031 -6.296875 5.132812 -6.003906 5.75 -5.421875 C 6.375 -4.835938 6.6875 -4.082031 6.6875 -3.15625 C 6.6875 -2.21875 6.367188 -1.457031 5.734375 -0.875 C 5.109375 -0.289062 4.289062 0 3.28125 0 L 0.625 0 Z M 2.234375 -5.015625 L 2.234375 -1.28125 L 3.375 -1.28125 C 3.863281 -1.28125 4.265625 -1.453125 4.578125 -1.796875 C 4.898438 -2.140625 5.0625 -2.585938 5.0625 -3.140625 C 5.0625 -3.691406 4.894531 -4.140625 4.5625 -4.484375 C 4.226562 -4.835938 3.804688 -5.015625 3.296875 -5.015625 Z M 2.234375 -5.015625 "/></g></g></g></svg>