<svg xmlns="http://www.w3.org/2000/svg" xmlns:xlink="http://www.w3.org/1999/xlink" width="500" zoomAndPan="magnify" viewBox="0 0 375 374.999991" height="500" preserveAspectRatio="xMidYMid meet" version="1.0"><defs><g/><clipPath id="ea45d85e50"><path d="M 58 255 L 346 255 L 346 346.675781 L 58 346.675781 Z M 58 255 " clip-rule="nonzero"/></clipPath><clipPath id="d42c39dcd3"><path d="M 51 55 L 349.5 55 L 349.5 259 L 51 259 Z M 51 55 " clip-rule="nonzero"/></clipPath><clipPath id="88e444f5b1"><path d="M 37.5 28.675781 L 173 28.675781 L 173 165 L 37.5 165 Z M 37.5 28.675781 " clip-rule="nonzero"/></clipPath></defs><g clip-path="url(#ea45d85e50)"><path fill="#ff5757" d="M 341.523438 307.519531 L 345.703125 303.335938 L 298.609375 256.238281 C 298.332031 255.957031 298.011719 255.742188 297.652344 255.59375 C 297.289062 255.441406 296.910156 255.367188 296.519531 255.367188 C 296.125 255.367188 295.75 255.441406 295.386719 255.59375 C 295.023438 255.742188 294.707031 255.957031 294.429688 256.238281 L 249.425781 301.277344 L 204.421875 256.238281 C 204.144531 255.957031 203.824219 255.742188 203.460938 255.59375 C 203.101562 255.441406 202.722656 255.367188 202.332031 255.367188 C 201.9375 255.367188 201.558594 255.441406 201.199219 255.59375 C 200.835938 255.742188 200.515625 255.957031 200.242188 256.238281 L 155.234375 301.277344 L 110.230469 256.238281 C 109.953125 255.957031 109.636719 255.742188 109.273438 255.59375 C 108.910156 255.441406 108.535156 255.367188 108.140625 255.367188 C 107.75 255.367188 107.371094 255.441406 107.007812 255.59375 C 106.648438 255.742188 106.328125 255.957031 106.050781 256.238281 L 58.957031 303.335938 L 63.136719 307.519531 L 72.820312 297.804688 L 72.820312 340.753906 L 61.046875 340.753906 L 61.046875 346.640625 L 343.613281 346.640625 L 343.613281 340.753906 L 331.839844 340.753906 L 331.839844 297.804688 Z M 116.972656 340.753906 L 105.199219 340.753906 L 105.199219 320.144531 L 116.972656 320.144531 Z M 137.574219 340.753906 L 122.859375 340.753906 L 122.859375 317.203125 C 122.859375 316.8125 122.785156 316.4375 122.632812 316.074219 C 122.484375 315.714844 122.273438 315.398438 121.996094 315.121094 C 121.71875 314.84375 121.402344 314.632812 121.042969 314.484375 C 120.679688 314.332031 120.304688 314.257812 119.914062 314.257812 L 102.253906 314.257812 C 101.863281 314.257812 101.488281 314.332031 101.128906 314.484375 C 100.769531 314.632812 100.449219 314.84375 100.171875 315.121094 C 99.898438 315.398438 99.683594 315.714844 99.535156 316.074219 C 99.386719 316.4375 99.3125 316.8125 99.3125 317.203125 L 99.3125 340.753906 L 78.707031 340.753906 L 78.707031 291.914062 L 108.140625 262.476562 L 137.574219 291.914062 Z M 167.007812 340.753906 L 143.460938 340.753906 L 143.460938 297.804688 L 153.144531 307.519531 L 155.234375 305.425781 L 157.324219 307.519531 L 167.007812 297.804688 Z M 231.765625 340.753906 L 172.894531 340.753906 L 172.894531 291.914062 L 202.332031 262.476562 L 231.765625 291.914062 Z M 261.199219 340.753906 L 237.652344 340.753906 L 237.652344 297.804688 L 247.335938 307.519531 L 249.425781 305.425781 L 251.515625 307.519531 L 261.199219 297.804688 Z M 302.40625 340.753906 L 290.632812 340.753906 L 290.632812 320.144531 L 302.40625 320.144531 Z M 325.953125 340.753906 L 308.292969 340.753906 L 308.292969 317.203125 C 308.292969 316.8125 308.21875 316.4375 308.070312 316.074219 C 307.917969 315.714844 307.707031 315.398438 307.429688 315.121094 C 307.15625 314.84375 306.835938 314.632812 306.476562 314.484375 C 306.113281 314.332031 305.738281 314.257812 305.347656 314.257812 L 287.6875 314.257812 C 287.296875 314.257812 286.921875 314.332031 286.5625 314.484375 C 286.203125 314.632812 285.882812 314.84375 285.605469 315.121094 C 285.332031 315.398438 285.117188 315.714844 284.96875 316.074219 C 284.820312 316.4375 284.746094 316.8125 284.746094 317.203125 L 284.746094 340.753906 L 267.085938 340.753906 L 267.085938 291.914062 L 296.519531 262.476562 L 325.953125 291.914062 Z M 325.953125 340.753906 " fill-opacity="1" fill-rule="nonzero"/></g><path fill="#ff5757" d="M 187.613281 299.539062 L 187.613281 323.089844 C 187.613281 323.480469 187.6875 323.855469 187.835938 324.214844 C 187.988281 324.578125 188.199219 324.894531 188.476562 325.171875 C 188.75 325.449219 189.070312 325.660156 189.429688 325.808594 C 189.789062 325.960938 190.167969 326.035156 190.554688 326.035156 L 214.105469 326.035156 C 214.492188 326.035156 214.871094 325.960938 215.230469 325.808594 C 215.589844 325.660156 215.910156 325.449219 216.183594 325.171875 C 216.460938 324.894531 216.671875 324.578125 216.824219 324.214844 C 216.972656 323.855469 217.046875 323.480469 217.046875 323.089844 L 217.046875 299.539062 C 217.046875 299.148438 216.972656 298.773438 216.824219 298.414062 C 216.671875 298.054688 216.460938 297.734375 216.183594 297.457031 C 215.910156 297.183594 215.589844 296.96875 215.230469 296.820312 C 214.871094 296.671875 214.492188 296.597656 214.105469 296.597656 L 190.554688 296.597656 C 190.167969 296.597656 189.789062 296.671875 189.429688 296.820312 C 189.070312 296.96875 188.75 297.183594 188.476562 297.457031 C 188.199219 297.734375 187.988281 298.054688 187.835938 298.414062 C 187.6875 298.773438 187.613281 299.148438 187.613281 299.539062 Z M 205.273438 302.484375 L 211.160156 302.484375 L 211.160156 308.371094 L 205.273438 308.371094 Z M 205.273438 314.257812 L 211.160156 314.257812 L 211.160156 320.144531 L 205.273438 320.144531 Z M 193.5 302.484375 L 199.386719 302.484375 L 199.386719 308.371094 L 193.5 308.371094 Z M 193.5 314.257812 L 199.386719 314.257812 L 199.386719 320.144531 L 193.5 320.144531 Z M 193.5 314.257812 " fill-opacity="1" fill-rule="nonzero"/><path fill="#ff5757" d="M 71.96875 131.746094 C 70.8125 130.585938 69.71875 129.375 68.683594 128.109375 C 67.648438 126.84375 66.675781 125.53125 65.769531 124.167969 C 64.863281 122.808594 64.023438 121.40625 63.253906 119.960938 C 62.484375 118.519531 61.789062 117.042969 61.164062 115.53125 C 60.539062 114.019531 59.992188 112.480469 59.519531 110.914062 C 59.042969 109.351562 58.648438 107.765625 58.328125 106.160156 C 58.011719 104.558594 57.773438 102.941406 57.613281 101.3125 C 57.453125 99.6875 57.371094 98.054688 57.371094 96.417969 C 57.371094 94.785156 57.453125 93.152344 57.613281 91.523438 C 57.773438 89.898438 58.011719 88.28125 58.328125 86.675781 C 58.648438 85.074219 59.042969 83.488281 59.519531 81.921875 C 59.992188 80.359375 60.539062 78.820312 61.164062 77.308594 C 61.789062 75.796875 62.484375 74.320312 63.253906 72.875 C 64.023438 71.433594 64.863281 70.03125 65.769531 68.671875 C 66.675781 67.308594 67.648438 65.996094 68.683594 64.730469 C 69.71875 63.464844 70.8125 62.253906 71.96875 61.09375 L 67.789062 56.914062 C 66.492188 58.210938 65.261719 59.566406 64.097656 60.980469 C 62.9375 62.398438 61.84375 63.867188 60.828125 65.390625 C 59.808594 66.914062 58.867188 68.484375 58.003906 70.101562 C 57.136719 71.71875 56.355469 73.371094 55.652344 75.066406 C 54.953125 76.757812 54.335938 78.480469 53.804688 80.234375 C 53.269531 81.988281 52.828125 83.765625 52.46875 85.5625 C 52.109375 87.359375 51.84375 89.167969 51.664062 90.992188 C 51.484375 92.816406 51.394531 94.644531 51.394531 96.476562 C 51.394531 98.3125 51.484375 100.140625 51.664062 101.964844 C 51.84375 103.789062 52.109375 105.597656 52.46875 107.394531 C 52.828125 109.191406 53.269531 110.96875 53.804688 112.722656 C 54.335938 114.476562 54.953125 116.199219 55.652344 117.890625 C 56.355469 119.585938 57.136719 121.238281 58.003906 122.855469 C 58.867188 124.472656 59.808594 126.042969 60.828125 127.566406 C 61.84375 129.089844 62.9375 130.558594 64.097656 131.976562 C 65.261719 133.390625 66.492188 134.746094 67.789062 136.042969 Z M 71.96875 131.746094 " fill-opacity="1" fill-rule="nonzero"/><g clip-path="url(#d42c39dcd3)"><path fill="#ff5757" d="M 280.332031 75.8125 L 315.914062 75.8125 L 157.324219 234.421875 C 157.050781 234.703125 156.730469 234.917969 156.367188 235.066406 C 156.003906 235.21875 155.628906 235.292969 155.234375 235.292969 C 154.84375 235.292969 154.464844 235.21875 154.105469 235.066406 C 153.742188 234.917969 153.421875 234.703125 153.144531 234.421875 L 114.382812 195.652344 C 113.964844 195.253906 113.515625 194.898438 113.03125 194.585938 C 112.546875 194.273438 112.039062 194.007812 111.503906 193.792969 C 110.96875 193.578125 110.421875 193.417969 109.855469 193.304688 C 109.289062 193.195312 108.71875 193.140625 108.140625 193.140625 C 107.566406 193.140625 106.996094 193.195312 106.429688 193.304688 C 105.863281 193.417969 105.3125 193.578125 104.777344 193.792969 C 104.242188 194.007812 103.734375 194.273438 103.25 194.585938 C 102.765625 194.898438 102.316406 195.253906 101.902344 195.652344 L 54.542969 242.988281 C 54.117188 243.417969 53.738281 243.882812 53.40625 244.386719 C 53.070312 244.890625 52.789062 245.421875 52.5625 245.976562 C 52.332031 246.535156 52.15625 247.109375 52.039062 247.703125 C 51.925781 248.292969 51.867188 248.890625 51.867188 249.496094 C 51.867188 250.097656 51.925781 250.695312 52.039062 251.289062 C 52.15625 251.878906 52.332031 252.457031 52.5625 253.011719 C 52.789062 253.570312 53.070312 254.101562 53.40625 254.605469 C 53.738281 255.105469 54.117188 255.574219 54.542969 256 C 54.972656 256.425781 55.4375 256.804688 55.9375 257.140625 C 56.441406 257.472656 56.972656 257.753906 57.53125 257.984375 C 58.089844 258.210938 58.664062 258.386719 59.253906 258.503906 C 59.847656 258.621094 60.445312 258.679688 61.046875 258.679688 C 61.652344 258.679688 62.246094 258.621094 62.839844 258.503906 C 63.429688 258.386719 64.007812 258.210938 64.5625 257.984375 C 65.121094 257.753906 65.652344 257.472656 66.15625 257.140625 C 66.65625 256.804688 67.125 256.425781 67.550781 256 L 106.050781 217.46875 C 106.328125 217.1875 106.648438 216.972656 107.007812 216.824219 C 107.371094 216.671875 107.75 216.597656 108.140625 216.597656 C 108.535156 216.597656 108.910156 216.671875 109.273438 216.824219 C 109.636719 216.972656 109.953125 217.1875 110.230469 217.46875 L 148.996094 256.238281 C 149.40625 256.648438 149.851562 257.011719 150.332031 257.332031 C 150.816406 257.65625 151.324219 257.925781 151.859375 258.148438 C 152.394531 258.371094 152.945312 258.539062 153.515625 258.652344 C 154.082031 258.761719 154.65625 258.820312 155.234375 258.820312 C 155.816406 258.820312 156.390625 258.761719 156.957031 258.652344 C 157.527344 258.539062 158.078125 258.371094 158.613281 258.148438 C 159.148438 257.925781 159.65625 257.65625 160.136719 257.332031 C 160.621094 257.011719 161.066406 256.648438 161.476562 256.238281 L 328.894531 88.796875 L 328.894531 124.386719 C 328.894531 125.0625 328.960938 125.730469 329.09375 126.394531 C 329.226562 127.058594 329.421875 127.703125 329.679688 128.328125 C 329.9375 128.953125 330.257812 129.546875 330.632812 130.109375 C 331.007812 130.671875 331.433594 131.191406 331.914062 131.671875 C 332.390625 132.148438 332.914062 132.578125 333.476562 132.953125 C 334.039062 133.328125 334.628906 133.644531 335.253906 133.90625 C 335.878906 134.164062 336.523438 134.359375 337.1875 134.492188 C 337.851562 134.621094 338.523438 134.6875 339.199219 134.6875 C 339.875 134.6875 340.542969 134.621094 341.207031 134.492188 C 341.871094 134.359375 342.515625 134.164062 343.140625 133.90625 C 343.765625 133.644531 344.359375 133.328125 344.921875 132.953125 C 345.484375 132.578125 346.003906 132.148438 346.484375 131.671875 C 346.960938 131.191406 347.386719 130.671875 347.765625 130.109375 C 348.140625 129.546875 348.457031 128.953125 348.714844 128.328125 C 348.976562 127.703125 349.171875 127.058594 349.300781 126.394531 C 349.433594 125.730469 349.5 125.0625 349.5 124.386719 L 349.5 66.980469 C 349.5 66.207031 349.425781 65.441406 349.273438 64.683594 C 349.121094 63.925781 348.898438 63.191406 348.605469 62.476562 C 348.308594 61.761719 347.945312 61.082031 347.515625 60.441406 C 347.085938 59.796875 346.597656 59.203125 346.050781 58.65625 C 345.503906 58.109375 344.910156 57.621094 344.265625 57.191406 C 343.625 56.761719 342.945312 56.398438 342.230469 56.101562 C 341.519531 55.808594 340.78125 55.582031 340.023438 55.433594 C 339.265625 55.28125 338.5 55.207031 337.726562 55.207031 L 280.332031 55.207031 C 279.652344 55.207031 278.984375 55.273438 278.320312 55.40625 C 277.65625 55.535156 277.011719 55.730469 276.386719 55.992188 C 275.761719 56.25 275.167969 56.566406 274.605469 56.941406 C 274.042969 57.320312 273.523438 57.746094 273.046875 58.222656 C 272.566406 58.703125 272.140625 59.222656 271.765625 59.785156 C 271.386719 60.347656 271.070312 60.941406 270.8125 61.566406 C 270.554688 62.191406 270.359375 62.835938 270.226562 63.5 C 270.09375 64.164062 270.027344 64.832031 270.027344 65.511719 C 270.027344 66.1875 270.09375 66.855469 270.226562 67.519531 C 270.359375 68.183594 270.554688 68.828125 270.8125 69.453125 C 271.070312 70.078125 271.386719 70.671875 271.765625 71.234375 C 272.140625 71.796875 272.566406 72.316406 273.046875 72.796875 C 273.523438 73.273438 274.042969 73.699219 274.605469 74.078125 C 275.167969 74.453125 275.761719 74.769531 276.386719 75.027344 C 277.011719 75.289062 277.65625 75.484375 278.320312 75.613281 C 278.984375 75.746094 279.652344 75.8125 280.332031 75.8125 Z M 280.332031 61.09375 L 337.726562 61.09375 C 338.113281 61.09375 338.496094 61.132812 338.875 61.207031 C 339.253906 61.28125 339.621094 61.394531 339.980469 61.542969 C 340.335938 61.691406 340.675781 61.871094 340.996094 62.085938 C 341.316406 62.300781 341.617188 62.546875 341.890625 62.820312 C 342.164062 63.09375 342.40625 63.390625 342.621094 63.710938 C 342.835938 64.03125 343.015625 64.371094 343.164062 64.730469 C 343.3125 65.085938 343.425781 65.453125 343.5 65.832031 C 343.574219 66.210938 343.613281 66.59375 343.613281 66.980469 L 343.613281 124.386719 C 343.613281 124.675781 343.585938 124.960938 343.527344 125.246094 C 343.472656 125.53125 343.386719 125.808594 343.277344 126.074219 C 343.167969 126.34375 343.03125 126.597656 342.871094 126.839844 C 342.707031 127.078125 342.523438 127.304688 342.320312 127.507812 C 342.113281 127.710938 341.890625 127.894531 341.652344 128.058594 C 341.410156 128.21875 341.15625 128.355469 340.886719 128.464844 C 340.621094 128.574219 340.34375 128.660156 340.058594 128.714844 C 339.773438 128.773438 339.488281 128.800781 339.199219 128.800781 C 338.910156 128.800781 338.621094 128.773438 338.335938 128.714844 C 338.050781 128.660156 337.777344 128.574219 337.507812 128.464844 C 337.242188 128.355469 336.984375 128.21875 336.746094 128.058594 C 336.503906 127.894531 336.28125 127.710938 336.074219 127.507812 C 335.871094 127.304688 335.6875 127.078125 335.527344 126.839844 C 335.367188 126.597656 335.230469 126.34375 335.117188 126.074219 C 335.007812 125.808594 334.925781 125.53125 334.867188 125.246094 C 334.8125 124.960938 334.78125 124.675781 334.78125 124.386719 L 334.78125 81.699219 C 334.78125 81.105469 334.613281 80.5625 334.28125 80.070312 C 333.949219 79.578125 333.507812 79.21875 332.957031 78.992188 C 332.410156 78.761719 331.84375 78.703125 331.261719 78.816406 C 330.675781 78.929688 330.171875 79.191406 329.75 79.609375 L 157.324219 252.085938 C 157.050781 252.363281 156.730469 252.578125 156.367188 252.730469 C 156.003906 252.882812 155.628906 252.957031 155.234375 252.957031 C 154.84375 252.957031 154.464844 252.882812 154.105469 252.730469 C 153.742188 252.578125 153.421875 252.363281 153.144531 252.085938 L 114.382812 213.316406 C 113.972656 212.90625 113.527344 212.542969 113.042969 212.21875 C 112.5625 211.898438 112.054688 211.625 111.519531 211.40625 C 110.984375 211.183594 110.429688 211.015625 109.863281 210.902344 C 109.292969 210.789062 108.722656 210.734375 108.140625 210.734375 C 107.5625 210.734375 106.988281 210.789062 106.421875 210.902344 C 105.851562 211.015625 105.300781 211.183594 104.765625 211.40625 C 104.230469 211.625 103.722656 211.898438 103.238281 212.21875 C 102.757812 212.542969 102.3125 212.90625 101.902344 213.316406 L 63.371094 251.820312 C 63.0625 252.125 62.707031 252.359375 62.300781 252.523438 C 61.898438 252.6875 61.480469 252.769531 61.046875 252.769531 C 60.613281 252.769531 60.195312 252.6875 59.792969 252.523438 C 59.390625 252.359375 59.03125 252.125 58.722656 251.820312 C 58.410156 251.515625 58.171875 251.160156 58.003906 250.757812 C 57.835938 250.351562 57.75 249.933594 57.75 249.496094 C 57.75 249.058594 57.835938 248.640625 58.003906 248.234375 C 58.171875 247.832031 58.410156 247.476562 58.722656 247.171875 L 106.050781 199.804688 C 106.328125 199.527344 106.648438 199.3125 107.007812 199.160156 C 107.371094 199.007812 107.75 198.933594 108.140625 198.933594 C 108.535156 198.933594 108.910156 199.007812 109.273438 199.160156 C 109.636719 199.3125 109.953125 199.527344 110.230469 199.804688 L 148.996094 238.574219 C 149.40625 238.984375 149.851562 239.347656 150.332031 239.671875 C 150.816406 239.992188 151.324219 240.265625 151.859375 240.484375 C 152.394531 240.707031 152.945312 240.875 153.515625 240.988281 C 154.082031 241.101562 154.65625 241.15625 155.234375 241.15625 C 155.816406 241.15625 156.390625 241.101562 156.957031 240.988281 C 157.527344 240.875 158.078125 240.707031 158.613281 240.484375 C 159.148438 240.265625 159.65625 239.992188 160.136719 239.671875 C 160.621094 239.347656 161.066406 238.984375 161.476562 238.574219 L 325.097656 74.960938 C 325.515625 74.535156 325.78125 74.03125 325.894531 73.449219 C 326.007812 72.863281 325.949219 72.300781 325.71875 71.75 C 325.492188 71.199219 325.132812 70.761719 324.640625 70.429688 C 324.148438 70.097656 323.605469 69.929688 323.007812 69.925781 L 280.332031 69.925781 C 280.039062 69.925781 279.753906 69.898438 279.46875 69.839844 C 279.183594 69.785156 278.910156 69.699219 278.640625 69.589844 C 278.371094 69.480469 278.117188 69.34375 277.878906 69.179688 C 277.636719 69.019531 277.414062 68.835938 277.207031 68.632812 C 277.003906 68.425781 276.820312 68.203125 276.660156 67.964844 C 276.5 67.722656 276.363281 67.46875 276.25 67.199219 C 276.140625 66.933594 276.054688 66.65625 276 66.371094 C 275.941406 66.085938 275.914062 65.800781 275.914062 65.511719 C 275.914062 65.21875 275.941406 64.933594 276 64.648438 C 276.054688 64.363281 276.140625 64.089844 276.25 63.820312 C 276.363281 63.550781 276.5 63.296875 276.660156 63.058594 C 276.820312 62.816406 277.003906 62.59375 277.207031 62.386719 C 277.414062 62.183594 277.636719 62 277.878906 61.839844 C 278.117188 61.675781 278.371094 61.542969 278.640625 61.429688 C 278.910156 61.320312 279.183594 61.234375 279.46875 61.179688 C 279.753906 61.121094 280.039062 61.09375 280.332031 61.09375 Z M 280.332031 61.09375 " fill-opacity="1" fill-rule="nonzero"/></g><path fill="#ff5757" d="M 106.667969 119.96875 L 105.199219 119.96875 C 104.617188 119.96875 104.042969 119.914062 103.476562 119.800781 C 102.90625 119.6875 102.355469 119.519531 101.820312 119.296875 C 101.285156 119.074219 100.773438 118.804688 100.292969 118.480469 C 99.808594 118.160156 99.363281 117.792969 98.953125 117.382812 C 98.542969 116.972656 98.179688 116.527344 97.855469 116.042969 C 97.535156 115.5625 97.261719 115.054688 97.039062 114.519531 C 96.816406 113.980469 96.652344 113.429688 96.539062 112.863281 C 96.425781 112.292969 96.367188 111.71875 96.367188 111.136719 C 96.367188 110.75 96.292969 110.371094 96.144531 110.011719 C 95.996094 109.652344 95.78125 109.332031 95.503906 109.058594 C 95.230469 108.78125 94.910156 108.566406 94.550781 108.417969 C 94.191406 108.269531 93.816406 108.195312 93.425781 108.195312 L 81.652344 108.195312 C 81.261719 108.195312 80.886719 108.269531 80.523438 108.417969 C 80.164062 108.566406 79.84375 108.78125 79.570312 109.058594 C 79.292969 109.332031 79.082031 109.652344 78.929688 110.011719 C 78.78125 110.371094 78.707031 110.75 78.707031 111.136719 C 78.703125 112.878906 78.867188 114.605469 79.207031 116.316406 C 79.542969 118.023438 80.046875 119.683594 80.710938 121.292969 C 81.378906 122.902344 82.199219 124.429688 83.167969 125.878906 C 84.140625 127.324219 85.242188 128.664062 86.476562 129.890625 C 89.308594 132.710938 92.601562 134.792969 96.367188 136.132812 L 96.367188 143.519531 C 96.367188 143.910156 96.441406 144.285156 96.59375 144.648438 C 96.742188 145.007812 96.953125 145.324219 97.230469 145.601562 C 97.507812 145.878906 97.824219 146.089844 98.183594 146.238281 C 98.546875 146.390625 98.921875 146.464844 99.3125 146.464844 L 111.085938 146.464844 C 111.476562 146.464844 111.851562 146.390625 112.210938 146.238281 C 112.570312 146.089844 112.890625 145.878906 113.167969 145.601562 C 113.441406 145.324219 113.65625 145.007812 113.804688 144.648438 C 113.953125 144.285156 114.027344 143.910156 114.027344 143.519531 L 114.027344 136.132812 C 117.796875 134.773438 121.105469 132.683594 123.949219 129.859375 C 125.179688 128.632812 126.28125 127.296875 127.246094 125.851562 C 128.214844 124.410156 129.03125 122.882812 129.695312 121.277344 C 130.359375 119.667969 130.859375 118.011719 131.195312 116.304688 C 131.53125 114.601562 131.695312 112.878906 131.6875 111.136719 C 131.6875 110.367188 131.652344 109.597656 131.574219 108.832031 C 131.5 108.0625 131.386719 107.300781 131.234375 106.542969 C 131.085938 105.789062 130.898438 105.039062 130.675781 104.300781 C 130.449219 103.5625 130.191406 102.839844 129.894531 102.125 C 129.601562 101.414062 129.273438 100.71875 128.910156 100.035156 C 128.542969 99.355469 128.148438 98.695312 127.71875 98.054688 C 127.292969 97.414062 126.832031 96.792969 126.34375 96.199219 C 125.855469 95.601562 125.335938 95.03125 124.792969 94.484375 C 124.246094 93.941406 123.675781 93.421875 123.078125 92.933594 C 122.484375 92.445312 121.863281 91.984375 121.222656 91.558594 C 120.582031 91.128906 119.921875 90.734375 119.242188 90.367188 C 118.5625 90.003906 117.863281 89.675781 117.152344 89.382812 C 116.441406 89.085938 115.714844 88.828125 114.976562 88.601562 C 114.238281 88.378906 113.492188 88.191406 112.734375 88.039062 C 111.980469 87.890625 111.21875 87.777344 110.449219 87.703125 C 109.683594 87.625 108.914062 87.589844 108.140625 87.589844 L 103.726562 87.589844 C 103.242188 87.585938 102.765625 87.539062 102.292969 87.441406 C 101.820312 87.347656 101.359375 87.207031 100.914062 87.019531 C 100.46875 86.835938 100.046875 86.609375 99.644531 86.339844 C 99.246094 86.070312 98.871094 85.765625 98.53125 85.425781 C 98.191406 85.082031 97.886719 84.710938 97.617188 84.3125 C 97.347656 83.910156 97.121094 83.484375 96.9375 83.039062 C 96.75 82.59375 96.609375 82.136719 96.515625 81.664062 C 96.417969 81.1875 96.371094 80.710938 96.367188 80.230469 C 96.367188 79.746094 96.414062 79.265625 96.507812 78.792969 C 96.605469 78.320312 96.742188 77.859375 96.929688 77.414062 C 97.113281 76.964844 97.339844 76.542969 97.609375 76.140625 C 97.875 75.738281 98.179688 75.367188 98.523438 75.023438 C 98.863281 74.683594 99.238281 74.378906 99.636719 74.109375 C 100.039062 73.839844 100.464844 73.613281 100.910156 73.429688 C 101.355469 73.246094 101.816406 73.105469 102.289062 73.011719 C 102.765625 72.917969 103.242188 72.871094 103.726562 72.871094 L 105.199219 72.871094 C 105.777344 72.871094 106.351562 72.925781 106.921875 73.039062 C 107.488281 73.152344 108.042969 73.320312 108.578125 73.542969 C 109.113281 73.761719 109.621094 74.035156 110.105469 74.359375 C 110.585938 74.679688 111.03125 75.046875 111.441406 75.457031 C 111.851562 75.867188 112.21875 76.3125 112.539062 76.792969 C 112.863281 77.277344 113.132812 77.785156 113.355469 78.320312 C 113.578125 78.855469 113.746094 79.410156 113.859375 79.976562 C 113.972656 80.546875 114.027344 81.121094 114.027344 81.699219 C 114.027344 82.089844 114.101562 82.464844 114.253906 82.828125 C 114.402344 83.1875 114.613281 83.507812 114.890625 83.78125 C 115.167969 84.058594 115.484375 84.269531 115.84375 84.421875 C 116.207031 84.570312 116.582031 84.644531 116.972656 84.644531 L 128.746094 84.644531 C 129.136719 84.644531 129.511719 84.570312 129.871094 84.421875 C 130.230469 84.269531 130.550781 84.058594 130.828125 83.78125 C 131.101562 83.507812 131.316406 83.1875 131.464844 82.828125 C 131.613281 82.464844 131.6875 82.089844 131.6875 81.699219 C 131.6875 80.339844 131.585938 78.984375 131.378906 77.636719 C 131.167969 76.292969 130.859375 74.96875 130.449219 73.671875 C 130.035156 72.375 129.527344 71.113281 128.921875 69.894531 C 128.3125 68.675781 127.617188 67.507812 126.832031 66.394531 C 126.046875 65.285156 125.179688 64.238281 124.230469 63.257812 C 123.285156 62.28125 122.269531 61.378906 121.179688 60.558594 C 120.09375 59.738281 118.953125 59.003906 117.753906 58.359375 C 116.554688 57.710938 115.3125 57.164062 114.027344 56.707031 L 114.027344 49.320312 C 114.027344 48.929688 113.953125 48.554688 113.804688 48.191406 C 113.65625 47.832031 113.441406 47.515625 113.167969 47.238281 C 112.890625 46.960938 112.570312 46.75 112.210938 46.597656 C 111.851562 46.449219 111.476562 46.375 111.085938 46.375 L 99.3125 46.375 C 98.921875 46.375 98.546875 46.449219 98.183594 46.597656 C 97.824219 46.75 97.507812 46.960938 97.230469 47.238281 C 96.953125 47.515625 96.742188 47.832031 96.59375 48.191406 C 96.441406 48.554688 96.367188 48.929688 96.367188 49.320312 L 96.367188 56.296875 C 95.65625 56.511719 94.957031 56.761719 94.269531 57.039062 C 93.582031 57.320312 92.90625 57.628906 92.246094 57.96875 C 91.585938 58.304688 90.941406 58.671875 90.3125 59.070312 C 89.683594 59.464844 89.078125 59.890625 88.484375 60.339844 C 87.894531 60.792969 87.328125 61.269531 86.777344 61.769531 C 86.230469 62.269531 85.707031 62.796875 85.207031 63.34375 C 84.703125 63.890625 84.226562 64.460938 83.777344 65.050781 C 83.328125 65.640625 82.902344 66.25 82.507812 66.878906 C 82.113281 67.507812 81.746094 68.152344 81.40625 68.8125 C 81.066406 69.472656 80.757812 70.148438 80.480469 70.835938 C 80.199219 71.527344 79.953125 72.226562 79.734375 72.9375 C 79.519531 73.648438 79.335938 74.367188 79.183594 75.09375 C 79.03125 75.820312 78.910156 76.550781 78.824219 77.289062 C 78.734375 78.027344 78.683594 78.765625 78.660156 79.507812 C 78.640625 80.25 78.652344 80.992188 78.695312 81.734375 C 78.738281 82.476562 78.816406 83.214844 78.929688 83.949219 C 79.039062 84.683594 79.179688 85.410156 79.355469 86.132812 C 79.53125 86.855469 79.738281 87.566406 79.976562 88.269531 C 80.214844 88.972656 80.484375 89.664062 80.785156 90.34375 C 81.085938 91.023438 81.414062 91.6875 81.773438 92.339844 C 82.132812 92.988281 82.523438 93.621094 82.9375 94.238281 C 83.355469 94.851562 83.796875 95.449219 84.265625 96.023438 C 84.734375 96.601562 85.226562 97.15625 85.746094 97.6875 C 86.261719 98.21875 86.804688 98.726562 87.367188 99.210938 C 87.929688 99.695312 88.515625 100.152344 89.117188 100.585938 C 89.722656 101.015625 90.34375 101.421875 90.984375 101.796875 C 91.625 102.171875 92.28125 102.519531 92.953125 102.839844 C 93.625 103.15625 94.308594 103.445312 95.003906 103.703125 C 95.699219 103.960938 96.40625 104.183594 97.125 104.378906 C 97.839844 104.574219 98.566406 104.734375 99.296875 104.867188 C 100.027344 104.996094 100.761719 105.09375 101.503906 105.15625 C 102.242188 105.222656 102.984375 105.253906 103.726562 105.25 L 106.667969 105.25 C 107.152344 105.253906 107.628906 105.300781 108.101562 105.398438 C 108.578125 105.492188 109.035156 105.632812 109.480469 105.820312 C 109.925781 106.003906 110.351562 106.230469 110.75 106.5 C 111.152344 106.769531 111.523438 107.074219 111.863281 107.414062 C 112.207031 107.757812 112.511719 108.128906 112.777344 108.527344 C 113.046875 108.929688 113.273438 109.351562 113.460938 109.796875 C 113.644531 110.246094 113.785156 110.703125 113.882812 111.175781 C 113.976562 111.648438 114.027344 112.128906 114.027344 112.609375 C 114.027344 113.09375 113.980469 113.570312 113.886719 114.046875 C 113.792969 114.519531 113.652344 114.980469 113.46875 115.425781 C 113.285156 115.875 113.054688 116.296875 112.789062 116.699219 C 112.519531 117.101562 112.214844 117.472656 111.875 117.8125 C 111.53125 118.15625 111.160156 118.460938 110.757812 118.730469 C 110.355469 118.996094 109.933594 119.226562 109.484375 119.410156 C 109.039062 119.59375 108.578125 119.734375 108.105469 119.828125 C 107.632812 119.921875 107.152344 119.96875 106.667969 119.96875 Z M 116.03125 103.277344 C 114.800781 102.019531 113.371094 101.046875 111.75 100.367188 C 110.125 99.6875 108.429688 99.355469 106.667969 99.363281 L 103.726562 99.363281 C 102.785156 99.363281 101.847656 99.296875 100.917969 99.160156 C 99.988281 99.023438 99.070312 98.820312 98.171875 98.546875 C 97.269531 98.277344 96.394531 97.9375 95.542969 97.539062 C 94.691406 97.136719 93.875 96.675781 93.089844 96.152344 C 92.308594 95.628906 91.566406 95.050781 90.871094 94.421875 C 90.171875 93.789062 89.523438 93.109375 88.929688 92.382812 C 88.332031 91.65625 87.789062 90.886719 87.308594 90.078125 C 86.824219 89.273438 86.402344 88.433594 86.042969 87.566406 C 85.679688 86.695312 85.386719 85.804688 85.160156 84.890625 C 84.929688 83.976562 84.769531 83.050781 84.679688 82.117188 C 84.589844 81.179688 84.566406 80.242188 84.613281 79.300781 C 84.660156 78.359375 84.777344 77.429688 84.960938 76.507812 C 85.144531 75.582031 85.398438 74.679688 85.714844 73.792969 C 86.035156 72.90625 86.417969 72.050781 86.863281 71.222656 C 87.304688 70.390625 87.808594 69.601562 88.371094 68.84375 C 88.933594 68.089844 89.550781 67.382812 90.214844 66.71875 C 91.535156 65.382812 93.019531 64.269531 94.667969 63.375 C 96.316406 62.484375 98.0625 61.851562 99.898438 61.476562 C 100.238281 61.40625 100.554688 61.285156 100.847656 61.105469 C 101.140625 60.925781 101.394531 60.699219 101.609375 60.429688 C 101.824219 60.164062 101.988281 59.863281 102.097656 59.539062 C 102.210938 59.210938 102.261719 58.878906 102.253906 58.535156 L 102.253906 52.261719 L 108.140625 52.261719 L 108.140625 58.886719 C 108.132812 59.222656 108.175781 59.546875 108.277344 59.867188 C 108.378906 60.183594 108.527344 60.476562 108.730469 60.746094 C 108.929688 61.011719 109.167969 61.238281 109.445312 61.425781 C 109.722656 61.613281 110.023438 61.746094 110.347656 61.832031 C 111.324219 62.082031 112.277344 62.402344 113.207031 62.792969 C 114.132812 63.183594 115.03125 63.640625 115.890625 64.160156 C 116.753906 64.683594 117.570312 65.265625 118.347656 65.910156 C 119.125 66.550781 119.851562 67.246094 120.523438 67.996094 C 121.199219 68.742188 121.816406 69.535156 122.371094 70.375 C 122.929688 71.214844 123.425781 72.089844 123.855469 73 C 124.28125 73.914062 124.644531 74.851562 124.9375 75.816406 C 125.226562 76.78125 125.449219 77.761719 125.597656 78.757812 L 119.710938 78.757812 C 119.539062 77.929688 119.300781 77.121094 118.992188 76.332031 C 118.683594 75.546875 118.3125 74.789062 117.871094 74.066406 C 117.433594 73.34375 116.9375 72.664062 116.378906 72.027344 C 115.824219 71.386719 115.21875 70.804688 114.5625 70.269531 C 113.90625 69.738281 113.207031 69.265625 112.46875 68.851562 C 111.730469 68.441406 110.964844 68.09375 110.164062 67.8125 C 109.367188 67.53125 108.550781 67.324219 107.71875 67.183594 C 106.882812 67.042969 106.042969 66.976562 105.199219 66.980469 L 103.726562 66.980469 C 102.855469 66.984375 101.996094 67.070312 101.144531 67.242188 C 100.292969 67.414062 99.464844 67.664062 98.664062 68 C 97.859375 68.332031 97.097656 68.738281 96.375 69.222656 C 95.652344 69.707031 94.984375 70.253906 94.371094 70.871094 C 93.753906 71.484375 93.207031 72.152344 92.722656 72.875 C 92.238281 73.597656 91.832031 74.359375 91.496094 75.164062 C 91.164062 75.964844 90.910156 76.792969 90.742188 77.648438 C 90.570312 78.5 90.484375 79.359375 90.480469 80.230469 C 90.484375 81.097656 90.574219 81.957031 90.746094 82.808594 C 90.917969 83.660156 91.171875 84.488281 91.503906 85.289062 C 91.839844 86.089844 92.246094 86.851562 92.730469 87.574219 C 93.214844 88.296875 93.761719 88.964844 94.378906 89.578125 C 94.992188 90.191406 95.660156 90.742188 96.382812 91.226562 C 97.101562 91.707031 97.863281 92.117188 98.667969 92.453125 C 99.46875 92.785156 100.296875 93.039062 101.144531 93.210938 C 101.996094 93.382812 102.859375 93.472656 103.726562 93.476562 L 108.140625 93.476562 C 108.71875 93.476562 109.296875 93.503906 109.871094 93.5625 C 110.449219 93.617188 111.019531 93.703125 111.585938 93.816406 C 112.152344 93.929688 112.714844 94.070312 113.269531 94.238281 C 113.820312 94.402344 114.367188 94.597656 114.898438 94.820312 C 115.433594 95.042969 115.957031 95.289062 116.464844 95.5625 C 116.976562 95.835938 117.472656 96.132812 117.953125 96.453125 C 118.433594 96.773438 118.898438 97.117188 119.34375 97.484375 C 119.792969 97.851562 120.21875 98.238281 120.628906 98.648438 C 121.039062 99.058594 121.425781 99.484375 121.792969 99.933594 C 122.160156 100.378906 122.503906 100.84375 122.824219 101.324219 C 123.148438 101.804688 123.445312 102.300781 123.714844 102.8125 C 123.988281 103.324219 124.234375 103.84375 124.457031 104.378906 C 124.679688 104.914062 124.875 105.457031 125.042969 106.011719 C 125.210938 106.566406 125.351562 107.125 125.460938 107.691406 C 125.574219 108.261719 125.660156 108.832031 125.71875 109.40625 C 125.773438 109.984375 125.800781 110.558594 125.800781 111.136719 C 125.800781 112.273438 125.710938 113.398438 125.523438 114.519531 C 125.339844 115.636719 125.0625 116.734375 124.695312 117.808594 C 124.328125 118.882812 123.875 119.917969 123.335938 120.917969 C 122.800781 121.917969 122.183594 122.863281 121.488281 123.761719 C 120.792969 124.660156 120.03125 125.492188 119.199219 126.261719 C 118.367188 127.035156 117.476562 127.730469 116.527344 128.355469 C 115.582031 128.980469 114.589844 129.523438 113.550781 129.980469 C 112.515625 130.441406 111.449219 130.8125 110.347656 131.097656 C 110.023438 131.179688 109.722656 131.316406 109.445312 131.5 C 109.167969 131.6875 108.929688 131.914062 108.730469 132.183594 C 108.527344 132.449219 108.378906 132.742188 108.277344 133.0625 C 108.175781 133.378906 108.132812 133.707031 108.140625 134.042969 L 108.140625 140.578125 L 102.253906 140.578125 L 102.253906 133.953125 C 102.265625 133.617188 102.21875 133.292969 102.121094 132.972656 C 102.019531 132.652344 101.867188 132.359375 101.667969 132.09375 C 101.46875 131.824219 101.226562 131.597656 100.949219 131.414062 C 100.671875 131.226562 100.371094 131.09375 100.046875 131.007812 C 99.070312 130.757812 98.121094 130.4375 97.191406 130.046875 C 96.261719 129.65625 95.367188 129.199219 94.503906 128.675781 C 93.644531 128.15625 92.824219 127.574219 92.046875 126.929688 C 91.273438 126.289062 90.546875 125.59375 89.871094 124.84375 C 89.199219 124.097656 88.582031 123.300781 88.023438 122.464844 C 87.464844 121.625 86.972656 120.75 86.542969 119.835938 C 86.113281 118.925781 85.753906 117.988281 85.460938 117.023438 C 85.167969 116.058594 84.949219 115.078125 84.800781 114.082031 L 90.6875 114.082031 C 90.855469 114.910156 91.09375 115.71875 91.402344 116.507812 C 91.710938 117.292969 92.085938 118.050781 92.523438 118.773438 C 92.960938 119.496094 93.460938 120.175781 94.015625 120.8125 C 94.570312 121.449219 95.175781 122.035156 95.835938 122.570312 C 96.492188 123.101562 97.1875 123.574219 97.925781 123.988281 C 98.664062 124.398438 99.433594 124.746094 100.230469 125.027344 C 101.027344 125.304688 101.84375 125.515625 102.679688 125.65625 C 103.511719 125.796875 104.351562 125.863281 105.199219 125.855469 L 106.667969 125.855469 C 107.539062 125.855469 108.398438 125.769531 109.25 125.597656 C 110.105469 125.425781 110.929688 125.175781 111.734375 124.839844 C 112.535156 124.507812 113.300781 124.097656 114.023438 123.617188 C 114.742188 123.132812 115.414062 122.582031 116.027344 121.96875 C 116.640625 121.355469 117.191406 120.6875 117.675781 119.964844 C 118.15625 119.242188 118.566406 118.476562 118.898438 117.675781 C 119.234375 116.871094 119.484375 116.046875 119.65625 115.191406 C 119.828125 114.339844 119.914062 113.480469 119.914062 112.609375 C 119.925781 110.855469 119.59375 109.167969 118.921875 107.550781 C 118.246094 105.929688 117.28125 104.507812 116.03125 103.277344 Z M 116.03125 103.277344 " fill-opacity="1" fill-rule="nonzero"/><g clip-path="url(#88e444f5b1)"><path fill="#ff5757" d="M 105.199219 164.125 C 106.304688 164.125 107.414062 164.097656 108.519531 164.042969 C 109.625 163.992188 110.730469 163.910156 111.832031 163.800781 C 112.9375 163.691406 114.035156 163.554688 115.132812 163.394531 C 116.226562 163.230469 117.320312 163.042969 118.40625 162.824219 C 119.492188 162.609375 120.574219 162.367188 121.648438 162.097656 C 122.722656 161.828125 123.789062 161.53125 124.851562 161.210938 C 125.910156 160.890625 126.960938 160.542969 128.003906 160.167969 C 129.046875 159.796875 130.082031 159.398438 131.105469 158.972656 C 132.128906 158.546875 133.140625 158.097656 134.144531 157.625 C 135.144531 157.152344 136.132812 156.652344 137.109375 156.132812 C 138.089844 155.609375 139.050781 155.0625 140 154.492188 C 140.953125 153.925781 141.886719 153.332031 142.808594 152.714844 C 143.730469 152.101562 144.636719 151.460938 145.527344 150.800781 C 146.414062 150.140625 147.289062 149.460938 148.144531 148.757812 C 149 148.054688 149.839844 147.332031 150.660156 146.585938 C 151.480469 145.84375 152.285156 145.078125 153.066406 144.296875 C 153.851562 143.511719 154.613281 142.710938 155.359375 141.890625 C 156.101562 141.066406 156.828125 140.230469 157.53125 139.371094 C 158.230469 138.515625 158.914062 137.640625 159.574219 136.753906 C 160.234375 135.863281 160.871094 134.957031 161.488281 134.035156 C 162.101562 133.113281 162.695312 132.179688 163.265625 131.226562 C 163.835938 130.277344 164.378906 129.3125 164.902344 128.335938 C 165.425781 127.359375 165.921875 126.371094 166.394531 125.367188 C 166.871094 124.367188 167.320312 123.355469 167.742188 122.328125 C 168.167969 121.304688 168.566406 120.273438 168.9375 119.230469 C 169.3125 118.1875 169.660156 117.132812 169.980469 116.074219 C 170.304688 115.011719 170.597656 113.945312 170.867188 112.871094 C 171.136719 111.796875 171.378906 110.714844 171.59375 109.628906 C 171.8125 108.542969 172 107.449219 172.164062 106.355469 C 172.324219 105.257812 172.460938 104.160156 172.570312 103.054688 C 172.679688 101.953125 172.761719 100.847656 172.816406 99.742188 C 172.867188 98.636719 172.894531 97.527344 172.894531 96.417969 C 172.894531 95.3125 172.867188 94.203125 172.816406 93.097656 C 172.761719 91.992188 172.679688 90.886719 172.570312 89.78125 C 172.460938 88.679688 172.324219 87.582031 172.164062 86.484375 C 172 85.390625 171.8125 84.296875 171.59375 83.210938 C 171.378906 82.125 171.136719 81.042969 170.867188 79.96875 C 170.597656 78.894531 170.304688 77.824219 169.980469 76.765625 C 169.660156 75.703125 169.3125 74.652344 168.9375 73.609375 C 168.566406 72.566406 168.167969 71.53125 167.742188 70.507812 C 167.320312 69.484375 166.871094 68.472656 166.394531 67.472656 C 165.921875 66.46875 165.425781 65.480469 164.902344 64.503906 C 164.378906 63.527344 163.835938 62.5625 163.265625 61.613281 C 162.695312 60.660156 162.101562 59.726562 161.488281 58.804688 C 160.871094 57.882812 160.234375 56.976562 159.574219 56.085938 C 158.914062 55.195312 158.230469 54.324219 157.53125 53.46875 C 156.828125 52.609375 156.101562 51.773438 155.359375 50.949219 C 154.613281 50.128906 153.851562 49.328125 153.066406 48.542969 C 152.285156 47.761719 151.480469 46.996094 150.660156 46.253906 C 149.839844 45.507812 149 44.785156 148.144531 44.082031 C 147.289062 43.378906 146.414062 42.695312 145.527344 42.035156 C 144.636719 41.375 143.730469 40.738281 142.808594 40.125 C 141.886719 39.507812 140.953125 38.914062 140 38.34375 C 139.050781 37.777344 138.089844 37.230469 137.109375 36.707031 C 136.132812 36.183594 135.144531 35.6875 134.144531 35.214844 C 133.140625 34.738281 132.128906 34.289062 131.105469 33.867188 C 130.082031 33.441406 129.046875 33.042969 128.003906 32.671875 C 126.960938 32.296875 125.910156 31.949219 124.851562 31.628906 C 123.789062 31.304688 122.722656 31.011719 121.648438 30.742188 C 120.574219 30.472656 119.492188 30.230469 118.40625 30.015625 C 117.320312 29.796875 116.226562 29.609375 115.132812 29.445312 C 114.035156 29.28125 112.9375 29.148438 111.832031 29.039062 C 110.730469 28.929688 109.625 28.847656 108.519531 28.792969 C 107.414062 28.738281 106.304688 28.710938 105.199219 28.710938 C 104.089844 28.710938 102.984375 28.738281 101.875 28.792969 C 100.769531 28.847656 99.664062 28.929688 98.5625 29.039062 C 97.460938 29.148438 96.359375 29.28125 95.265625 29.445312 C 94.167969 29.609375 93.078125 29.796875 91.992188 30.015625 C 90.902344 30.230469 89.824219 30.472656 88.75 30.742188 C 87.675781 31.011719 86.605469 31.304688 85.546875 31.628906 C 84.484375 31.949219 83.433594 32.296875 82.390625 32.671875 C 81.347656 33.042969 80.316406 33.441406 79.292969 33.867188 C 78.265625 34.289062 77.253906 34.738281 76.253906 35.214844 C 75.25 35.6875 74.261719 36.183594 73.285156 36.707031 C 72.308594 37.230469 71.34375 37.777344 70.394531 38.34375 C 69.445312 38.914062 68.507812 39.507812 67.585938 40.125 C 66.664062 40.738281 65.761719 41.375 64.871094 42.035156 C 63.980469 42.695312 63.105469 43.378906 62.25 44.082031 C 61.394531 44.785156 60.554688 45.507812 59.734375 46.253906 C 58.914062 46.996094 58.113281 47.761719 57.328125 48.542969 C 56.542969 49.328125 55.78125 50.128906 55.039062 50.949219 C 54.292969 51.773438 53.570312 52.609375 52.867188 53.46875 C 52.164062 54.324219 51.484375 55.195312 50.824219 56.085938 C 50.164062 56.976562 49.523438 57.882812 48.910156 58.804688 C 48.292969 59.726562 47.699219 60.660156 47.132812 61.613281 C 46.5625 62.5625 46.015625 63.527344 45.492188 64.503906 C 44.972656 65.480469 44.472656 66.46875 44 67.472656 C 43.527344 68.472656 43.078125 69.484375 42.652344 70.507812 C 42.230469 71.53125 41.832031 72.566406 41.457031 73.609375 C 41.085938 74.652344 40.738281 75.703125 40.414062 76.765625 C 40.09375 77.824219 39.796875 78.894531 39.527344 79.96875 C 39.257812 81.042969 39.015625 82.125 38.800781 83.210938 C 38.585938 84.296875 38.394531 85.390625 38.234375 86.484375 C 38.070312 87.582031 37.933594 88.679688 37.824219 89.78125 C 37.71875 90.886719 37.636719 91.992188 37.582031 93.097656 C 37.527344 94.203125 37.5 95.3125 37.5 96.417969 C 37.5 97.527344 37.527344 98.636719 37.582031 99.742188 C 37.636719 100.847656 37.71875 101.953125 37.824219 103.054688 C 37.933594 104.160156 38.070312 105.257812 38.234375 106.355469 C 38.394531 107.449219 38.585938 108.542969 38.800781 109.628906 C 39.015625 110.714844 39.257812 111.796875 39.527344 112.871094 C 39.796875 113.945312 40.09375 115.011719 40.414062 116.074219 C 40.738281 117.132812 41.085938 118.1875 41.457031 119.230469 C 41.832031 120.273438 42.230469 121.304688 42.652344 122.328125 C 43.078125 123.355469 43.527344 124.367188 44 125.367188 C 44.472656 126.371094 44.972656 127.359375 45.492188 128.335938 C 46.015625 129.3125 46.5625 130.277344 47.132812 131.226562 C 47.699219 132.179688 48.292969 133.113281 48.910156 134.035156 C 49.523438 134.957031 50.164062 135.863281 50.824219 136.753906 C 51.484375 137.640625 52.164062 138.515625 52.867188 139.371094 C 53.570312 140.230469 54.292969 141.066406 55.039062 141.890625 C 55.78125 142.710938 56.542969 143.511719 57.328125 144.296875 C 58.113281 145.078125 58.914062 145.84375 59.734375 146.585938 C 60.554688 147.332031 61.394531 148.054688 62.25 148.757812 C 63.105469 149.460938 63.980469 150.140625 64.871094 150.800781 C 65.761719 151.460938 66.664062 152.101562 67.585938 152.714844 C 68.507812 153.332031 69.445312 153.925781 70.394531 154.492188 C 71.34375 155.0625 72.308594 155.609375 73.285156 156.132812 C 74.261719 156.652344 75.25 157.152344 76.253906 157.625 C 77.253906 158.097656 78.269531 158.546875 79.292969 158.972656 C 80.316406 159.398438 81.347656 159.796875 82.390625 160.167969 C 83.433594 160.542969 84.484375 160.890625 85.546875 161.210938 C 86.605469 161.53125 87.675781 161.828125 88.75 162.097656 C 89.824219 162.367188 90.902344 162.609375 91.992188 162.824219 C 93.078125 163.042969 94.167969 163.230469 95.265625 163.394531 C 96.359375 163.554688 97.460938 163.691406 98.5625 163.800781 C 99.664062 163.910156 100.769531 163.992188 101.875 164.042969 C 102.984375 164.097656 104.089844 164.125 105.199219 164.125 Z M 105.199219 34.601562 C 107.222656 34.601562 109.242188 34.699219 111.257812 34.898438 C 113.269531 35.097656 115.269531 35.394531 117.257812 35.789062 C 119.242188 36.183594 121.203125 36.675781 123.140625 37.261719 C 125.078125 37.851562 126.980469 38.53125 128.851562 39.304688 C 130.722656 40.082031 132.550781 40.945312 134.335938 41.898438 C 136.121094 42.855469 137.855469 43.894531 139.539062 45.019531 C 141.222656 46.144531 142.847656 47.347656 144.410156 48.632812 C 145.976562 49.917969 147.472656 51.273438 148.90625 52.707031 C 150.335938 54.136719 151.695312 55.636719 152.980469 57.203125 C 154.261719 58.765625 155.46875 60.390625 156.59375 62.074219 C 157.71875 63.757812 158.757812 65.492188 159.710938 67.277344 C 160.664062 69.0625 161.53125 70.890625 162.304688 72.761719 C 163.078125 74.632812 163.761719 76.535156 164.347656 78.472656 C 164.933594 80.410156 165.425781 82.375 165.820312 84.359375 C 166.214844 86.34375 166.511719 88.34375 166.710938 90.359375 C 166.910156 92.375 167.007812 94.394531 167.007812 96.417969 C 167.007812 98.445312 166.910156 100.464844 166.710938 102.480469 C 166.511719 104.492188 166.214844 106.496094 165.820312 108.480469 C 165.425781 110.464844 164.933594 112.425781 164.347656 114.363281 C 163.761719 116.300781 163.078125 118.207031 162.304688 120.078125 C 161.53125 121.949219 160.664062 123.777344 159.710938 125.5625 C 158.757812 127.347656 157.71875 129.082031 156.59375 130.765625 C 155.46875 132.449219 154.261719 134.070312 152.980469 135.636719 C 151.695312 137.203125 150.335938 138.699219 148.90625 140.132812 C 147.472656 141.5625 145.976562 142.921875 144.410156 144.207031 C 142.847656 145.492188 141.222656 146.695312 139.539062 147.820312 C 137.855469 148.945312 136.121094 149.984375 134.335938 150.9375 C 132.550781 151.894531 130.722656 152.757812 128.851562 153.53125 C 126.980469 154.308594 125.078125 154.988281 123.140625 155.578125 C 121.203125 156.164062 119.242188 156.65625 117.257812 157.050781 C 115.269531 157.445312 113.269531 157.742188 111.257812 157.941406 C 109.242188 158.140625 107.222656 158.238281 105.199219 158.238281 C 103.171875 158.238281 101.152344 158.140625 99.140625 157.941406 C 97.125 157.742188 95.125 157.445312 93.140625 157.050781 C 91.152344 156.65625 89.191406 156.164062 87.253906 155.578125 C 85.316406 154.988281 83.414062 154.308594 81.542969 153.53125 C 79.671875 152.757812 77.847656 151.894531 76.058594 150.9375 C 74.273438 149.984375 72.539062 148.945312 70.859375 147.820312 C 69.175781 146.695312 67.550781 145.492188 65.984375 144.207031 C 64.421875 142.921875 62.921875 141.5625 61.492188 140.132812 C 60.058594 138.699219 58.703125 137.203125 57.417969 135.636719 C 56.132812 134.070312 54.929688 132.449219 53.804688 130.765625 C 52.679688 129.082031 51.640625 127.347656 50.683594 125.5625 C 49.730469 123.777344 48.867188 121.949219 48.09375 120.078125 C 47.316406 118.207031 46.636719 116.300781 46.046875 114.363281 C 45.460938 112.425781 44.96875 110.464844 44.574219 108.480469 C 44.179688 106.496094 43.882812 104.492188 43.683594 102.480469 C 43.484375 100.464844 43.386719 98.445312 43.386719 96.417969 C 43.386719 94.394531 43.484375 92.375 43.683594 90.359375 C 43.882812 88.34375 44.179688 86.34375 44.574219 84.359375 C 44.96875 82.375 45.460938 80.410156 46.046875 78.472656 C 46.636719 76.535156 47.316406 74.632812 48.09375 72.761719 C 48.867188 70.890625 49.730469 69.0625 50.683594 67.277344 C 51.640625 65.492188 52.679688 63.757812 53.804688 62.074219 C 54.929688 60.390625 56.132812 58.765625 57.417969 57.203125 C 58.703125 55.636719 60.058594 54.136719 61.492188 52.707031 C 62.921875 51.273438 64.421875 49.917969 65.984375 48.632812 C 67.550781 47.347656 69.175781 46.144531 70.859375 45.019531 C 72.539062 43.894531 74.273438 42.855469 76.058594 41.898438 C 77.847656 40.945312 79.671875 40.082031 81.542969 39.304688 C 83.414062 38.53125 85.316406 37.851562 87.253906 37.261719 C 89.191406 36.675781 91.152344 36.183594 93.140625 35.789062 C 95.125 35.394531 97.125 35.097656 99.140625 34.898438 C 101.152344 34.699219 103.171875 34.601562 105.199219 34.601562 Z M 105.199219 34.601562 " fill-opacity="1" fill-rule="nonzero"/></g><g fill="#ffffff" fill-opacity="1"><g transform="translate(103.738123, 217.7838)"><g><path d="M 5.5625 -5.046875 L 2.234375 -5.046875 L 2.234375 -3.78125 L 5.234375 -3.78125 L 5.234375 -2.53125 L 2.234375 -2.53125 L 2.234375 -1.265625 L 5.65625 -1.265625 L 5.65625 0 L 0.625 0 L 0.625 -6.296875 L 5.5625 -6.296875 Z M 5.5625 -5.046875 "/></g></g></g><g fill="#ffffff" fill-opacity="1"><g transform="translate(110.254166, 217.7838)"><g><path d="M 3.046875 -6.375 C 3.992188 -6.375 4.820312 -6.140625 5.53125 -5.671875 L 4.9375 -4.421875 C 4.601562 -4.609375 4.242188 -4.765625 3.859375 -4.890625 C 3.484375 -5.015625 3.171875 -5.078125 2.921875 -5.078125 C 2.453125 -5.078125 2.21875 -4.921875 2.21875 -4.609375 C 2.21875 -4.410156 2.332031 -4.25 2.5625 -4.125 C 2.789062 -4.007812 3.066406 -3.910156 3.390625 -3.828125 C 3.722656 -3.742188 4.050781 -3.640625 4.375 -3.515625 C 4.707031 -3.390625 4.984375 -3.1875 5.203125 -2.90625 C 5.429688 -2.632812 5.546875 -2.289062 5.546875 -1.875 C 5.546875 -1.269531 5.304688 -0.796875 4.828125 -0.453125 C 4.359375 -0.117188 3.757812 0.046875 3.03125 0.046875 C 2.507812 0.046875 1.992188 -0.0390625 1.484375 -0.21875 C 0.972656 -0.394531 0.53125 -0.640625 0.15625 -0.953125 L 0.78125 -2.1875 C 1.09375 -1.90625 1.460938 -1.675781 1.890625 -1.5 C 2.328125 -1.320312 2.710938 -1.234375 3.046875 -1.234375 C 3.304688 -1.234375 3.507812 -1.28125 3.65625 -1.375 C 3.800781 -1.46875 3.875 -1.609375 3.875 -1.796875 C 3.875 -1.960938 3.789062 -2.101562 3.625 -2.21875 C 3.457031 -2.34375 3.25 -2.429688 3 -2.484375 C 2.757812 -2.546875 2.492188 -2.625 2.203125 -2.71875 C 1.910156 -2.8125 1.640625 -2.914062 1.390625 -3.03125 C 1.148438 -3.144531 0.945312 -3.328125 0.78125 -3.578125 C 0.625 -3.828125 0.546875 -4.125 0.546875 -4.46875 C 0.546875 -5.050781 0.773438 -5.515625 1.234375 -5.859375 C 1.691406 -6.203125 2.296875 -6.375 3.046875 -6.375 Z M 3.046875 -6.375 "/></g></g></g><g fill="#ffffff" fill-opacity="1"><g transform="translate(116.50021, 217.7838)"><g><path d="M 5.4375 -5.015625 L 3.546875 -5.015625 L 3.546875 0 L 1.9375 0 L 1.9375 -5.015625 L 0.0625 -5.015625 L 0.0625 -6.3125 L 5.4375 -6.3125 Z M 5.4375 -5.015625 "/></g></g></g><g fill="#ffffff" fill-opacity="1"><g transform="translate(122.449244, 217.7838)"><g><path d="M 0.625 -6.296875 L 3.34375 -6.296875 C 4.332031 -6.296875 5.132812 -6.003906 5.75 -5.421875 C 6.375 -4.835938 6.6875 -4.082031 6.6875 -3.15625 C 6.6875 -2.21875 6.367188 -1.457031 5.734375 -0.875 C 5.109375 -0.289062 4.289062 0 3.28125 0 L 0.625 0 Z M 2.234375 -5.015625 L 2.234375 -1.28125 L 3.375 -1.28125 C 3.863281 -1.28125 4.265625 -1.453125 4.578125 -1.796875 C 4.898438 -2.140625 5.0625 -2.585938 5.0625 -3.140625 C 5.0625 -3.691406 4.894531 -4.140625 4.5625 -4.484375 C 4.226562 -4.835938 3.804688 -5.015625 3.296875 -5.015625 Z M 2.234375 -5.015625 "/></g></g></g></svg>