<svg xmlns="http://www.w3.org/2000/svg" xmlns:xlink="http://www.w3.org/1999/xlink" width="500" zoomAndPan="magnify" viewBox="0 0 375 374.999991" height="500" preserveAspectRatio="xMidYMid meet" version="1.0"><defs><g/><clipPath id="d192755932"><path d="M 152.3125 103.234375 L 251.804688 103.234375 L 251.804688 218.808594 L 152.3125 218.808594 Z M 152.3125 103.234375 " clip-rule="nonzero"/></clipPath><clipPath id="8e6de87b12"><path d="M 123.558594 90.621094 L 215 90.621094 L 215 198 L 123.558594 198 Z M 123.558594 90.621094 " clip-rule="nonzero"/></clipPath><clipPath id="5a379ee26f"><path d="M 85.617188 187.234375 L 281.367188 187.234375 L 281.367188 238 L 85.617188 238 Z M 85.617188 187.234375 " clip-rule="nonzero"/></clipPath><clipPath id="1d3a6b7d5f"><path d="M 249 309 L 281.367188 309 L 281.367188 331 L 249 331 Z M 249 309 " clip-rule="nonzero"/></clipPath><clipPath id="41e5926189"><path d="M 146 258 L 245 258 L 245 374.734375 L 146 374.734375 Z M 146 258 " clip-rule="nonzero"/></clipPath><clipPath id="50de09653d"><path d="M 85.617188 248 L 167 248 L 167 331 L 85.617188 331 Z M 85.617188 248 " clip-rule="nonzero"/></clipPath><clipPath id="476e07eea9"><path d="M 121 45 L 246 45 L 246 220.519531 L 121 220.519531 Z M 121 45 " clip-rule="nonzero"/></clipPath><clipPath id="eca7992ab4"><path d="M 181 21.019531 L 186 21.019531 L 186 35 L 181 35 Z M 181 21.019531 " clip-rule="nonzero"/></clipPath><clipPath id="abd6ccbb69"><path d="M 98.644531 104 L 113 104 L 113 109 L 98.644531 109 Z M 98.644531 104 " clip-rule="nonzero"/></clipPath><clipPath id="3486703b9e"><path d="M 254 104 L 268.144531 104 L 268.144531 109 L 254 109 Z M 254 104 " clip-rule="nonzero"/></clipPath></defs><path fill="#ffffff" d="M 161.199219 208.179688 L 161.199219 197.796875 C 170.597656 186.910156 171.820312 175.824219 169.023438 163.9375 C 165.238281 147.875 151.597656 137.511719 146.230469 133.976562 C 151.984375 136.417969 167.527344 144.226562 174.171875 159.554688 C 180.78125 174.804688 179.796875 189.90625 161.199219 208.179688 " fill-opacity="1" fill-rule="nonzero"/><g clip-path="url(#d192755932)"><path fill="#ffffff" d="M 225.328125 128.183594 C 218.054688 139.460938 214.160156 152.613281 214.160156 152.613281 C 215.796875 139.851562 221.234375 128.183594 221.234375 128.183594 C 227.625 112.324219 236.019531 103.328125 236.019531 103.328125 C 236.011719 103.335938 236 103.339844 235.992188 103.347656 C 235.152344 103.914062 218.351562 110.308594 203.554688 162.609375 C 190.675781 208.117188 152.371094 215.875 152.371094 215.875 C 152.371094 215.875 156.054688 215.722656 161.199219 214.589844 L 161.199219 218.808594 L 193.070312 218.808594 C 204.71875 218.808594 214.160156 209.402344 214.160156 197.796875 L 214.160156 180.945312 L 251.800781 180.945312 L 251.800781 149.195312 C 251.800781 137.589844 242.359375 128.183594 230.710938 128.183594 L 225.328125 128.183594 " fill-opacity="1" fill-rule="nonzero"/></g><g clip-path="url(#8e6de87b12)"><path fill="#ffffff" d="M 195.109375 139.582031 C 194.953125 140.875 194.59375 142.089844 194.058594 143.164062 C 193 145.289062 191.253906 146.878906 189.023438 147.476562 C 184.300781 148.742188 179.199219 145.058594 177.632812 139.25 C 177.558594 138.964844 177.492188 138.675781 177.433594 138.394531 C 176.984375 136.167969 177.128906 133.984375 177.761719 132.09375 C 178.222656 128.253906 180.488281 125.09375 183.847656 124.195312 C 188.570312 122.929688 193.671875 126.613281 195.238281 132.425781 C 195.917969 134.945312 195.820312 137.453125 195.109375 139.582031 Z M 182.289062 90.683594 C 170.644531 90.683594 161.199219 100.089844 161.199219 111.695312 L 161.199219 128.183594 L 123.558594 128.183594 L 123.558594 159.933594 C 123.558594 168.007812 128.132812 175.019531 134.835938 178.535156 C 137.769531 180.074219 141.109375 180.945312 144.648438 180.945312 L 161.199219 180.945312 L 161.199219 197.796875 C 170.597656 186.910156 171.820312 175.824219 169.023438 163.9375 C 165.238281 147.871094 151.597656 137.511719 146.226562 133.976562 C 144.851562 133.386719 144.035156 133.113281 144.035156 133.113281 C 144.394531 133.15625 144.753906 133.203125 145.101562 133.253906 C 145.632812 133.324219 146.152344 133.40625 146.667969 133.488281 C 160.765625 135.78125 171.285156 141.832031 178.429688 147.535156 C 180.4375 149.140625 182.179688 150.714844 183.660156 152.167969 C 187.152344 155.609375 189.183594 158.382812 189.816406 159.289062 C 189.957031 159.492188 190.027344 159.601562 190.027344 159.601562 C 190.226562 159.128906 190.425781 158.664062 190.628906 158.199219 C 197.792969 141.710938 206.386719 129.6875 214.160156 121.167969 L 214.160156 90.683594 L 182.289062 90.683594 " fill-opacity="1" fill-rule="nonzero"/></g><path fill="#ffffff" d="M 195.109375 139.582031 C 194.953125 140.875 194.59375 142.089844 194.058594 143.164062 C 193 145.289062 191.253906 146.878906 189.023438 147.476562 C 184.300781 148.742188 179.199219 145.058594 177.632812 139.25 C 177.558594 138.964844 177.492188 138.675781 177.433594 138.394531 C 176.984375 136.167969 177.128906 133.984375 177.761719 132.09375 C 177.605469 133.390625 177.652344 134.761719 177.933594 136.152344 C 177.992188 136.4375 178.058594 136.722656 178.136719 137.007812 C 179.699219 142.820312 184.800781 146.503906 189.523438 145.238281 C 191.753906 144.636719 193.5 143.046875 194.558594 140.921875 C 194.769531 140.496094 194.957031 140.050781 195.109375 139.582031 " fill-opacity="1" fill-rule="nonzero"/><g clip-path="url(#5a379ee26f)"><path fill="#ff5757" d="M 270.582031 187.234375 C 265.695312 187.234375 261.726562 190.433594 260.355469 194.851562 L 253.789062 194.851562 C 236.234375 194.851562 221.734375 208.253906 220.359375 225.621094 C 215.472656 229.425781 209.367188 231.558594 202.957031 231.40625 C 197.765625 227.75 191.8125 225.773438 185.402344 225.316406 C 184.332031 225.316406 183.113281 225.316406 182.042969 225.316406 C 175.632812 225.621094 169.679688 227.75 164.488281 231.40625 C 158.078125 231.558594 151.972656 229.425781 147.085938 225.621094 C 145.40625 208.253906 130.90625 194.851562 113.351562 194.851562 L 106.785156 194.851562 C 105.410156 190.433594 101.441406 187.234375 96.558594 187.234375 C 90.605469 187.234375 85.871094 191.957031 85.871094 197.898438 C 85.871094 203.839844 90.605469 208.558594 96.558594 208.558594 C 101.441406 208.558594 105.410156 205.359375 106.785156 200.945312 L 113.351562 200.945312 C 128.15625 200.945312 140.214844 212.519531 140.828125 227.292969 C 140.828125 228.207031 141.285156 228.96875 141.894531 229.425781 C 148.460938 235.0625 156.855469 237.957031 165.402344 237.5 C 165.863281 237.5 166.320312 237.347656 166.625 237.195312 C 166.777344 237.042969 166.929688 237.042969 167.082031 236.890625 C 171.359375 233.691406 176.546875 231.710938 181.890625 231.558594 C 181.890625 231.558594 182.042969 231.558594 182.042969 231.558594 C 182.960938 231.558594 183.875 231.558594 184.792969 231.558594 C 184.792969 231.558594 184.792969 231.558594 184.945312 231.558594 C 190.4375 231.863281 195.628906 233.691406 199.902344 236.890625 C 200.210938 237.195312 200.667969 237.347656 201.125 237.5 C 201.277344 237.5 201.429688 237.5 201.582031 237.5 C 202.195312 237.5 202.804688 237.5 203.261719 237.5 C 211.351562 237.5 218.984375 234.605469 225.089844 229.425781 C 225.855469 228.816406 226.160156 227.902344 226.160156 226.988281 C 226.921875 212.367188 238.832031 201.097656 253.636719 201.097656 L 260.203125 201.097656 C 261.574219 205.511719 265.542969 208.710938 270.429688 208.710938 C 276.382812 208.710938 281.113281 203.992188 281.113281 198.050781 C 281.113281 192.109375 276.535156 187.234375 270.582031 187.234375 Z M 96.558594 202.46875 C 93.960938 202.46875 91.976562 200.488281 91.976562 197.898438 C 91.976562 195.308594 93.960938 193.328125 96.558594 193.328125 C 99.152344 193.328125 101.136719 195.308594 101.136719 197.898438 C 101.136719 200.488281 99.152344 202.46875 96.558594 202.46875 Z M 270.582031 202.46875 C 267.988281 202.46875 266.003906 200.488281 266.003906 197.898438 C 266.003906 195.308594 267.988281 193.328125 270.582031 193.328125 C 273.175781 193.328125 275.160156 195.308594 275.160156 197.898438 C 275.160156 200.488281 273.175781 202.46875 270.582031 202.46875 Z M 270.582031 202.46875 " fill-opacity="1" fill-rule="nonzero"/></g><path fill="#ff5757" d="M 214.253906 272.378906 C 215.78125 269.179688 216.695312 265.527344 217 261.871094 L 245.089844 261.871094 C 246.460938 266.289062 250.433594 269.484375 255.316406 269.484375 C 261.269531 269.484375 266.003906 264.765625 266.003906 258.824219 C 266.003906 252.882812 261.269531 248.160156 255.316406 248.160156 C 250.433594 248.160156 246.460938 251.359375 245.089844 255.777344 L 211.046875 255.777344 L 211.046875 258.824219 C 211.046875 264.15625 209.519531 269.179688 206.925781 273.292969 C 207.535156 273.445312 208.148438 273.75 208.605469 274.054688 C 210.4375 273.140625 212.269531 272.683594 214.253906 272.378906 Z M 255.316406 254.253906 C 257.910156 254.253906 259.894531 256.234375 259.894531 258.824219 C 259.894531 261.414062 257.910156 263.394531 255.316406 263.394531 C 252.722656 263.394531 250.738281 261.414062 250.738281 258.824219 C 250.738281 256.234375 252.722656 254.253906 255.316406 254.253906 Z M 255.316406 254.253906 " fill-opacity="1" fill-rule="nonzero"/><g clip-path="url(#1d3a6b7d5f)"><path fill="#ff5757" d="M 270.582031 309.089844 C 265.695312 309.089844 261.726562 312.285156 260.355469 316.703125 L 253.789062 316.703125 C 252.570312 316.703125 251.195312 316.550781 249.972656 316.398438 L 249.667969 322.492188 C 251.042969 322.644531 252.261719 322.796875 253.636719 322.796875 L 260.203125 322.796875 C 261.574219 327.214844 265.542969 330.410156 270.429688 330.410156 C 276.382812 330.410156 281.113281 325.691406 281.113281 319.75 C 281.113281 313.808594 276.535156 309.089844 270.582031 309.089844 Z M 270.582031 324.320312 C 267.988281 324.320312 266.003906 322.339844 266.003906 319.75 C 266.003906 317.160156 267.988281 315.179688 270.582031 315.179688 C 273.175781 315.179688 275.160156 317.160156 275.160156 319.75 C 275.160156 322.339844 273.175781 324.320312 270.582031 324.320312 Z M 270.582031 324.320312 " fill-opacity="1" fill-rule="nonzero"/></g><g clip-path="url(#41e5926189)"><path fill="#ff5757" d="M 200.515625 278.320312 C 199.140625 278.320312 197.917969 278.472656 196.699219 278.929688 L 196.699219 271.007812 C 196.699219 264.308594 191.203125 258.824219 184.484375 258.824219 C 177.769531 258.824219 172.273438 264.308594 172.273438 271.007812 L 172.273438 312.894531 L 168.457031 308.328125 C 166.167969 305.433594 162.65625 303.757812 158.992188 303.757812 C 156.09375 303.757812 153.34375 304.824219 151.207031 306.652344 C 146.171875 310.914062 145.40625 318.53125 149.679688 323.710938 L 172.730469 352.039062 L 173.191406 354.476562 C 175.019531 366.207031 184.945312 374.734375 196.851562 374.734375 L 218.527344 374.734375 C 231.503906 374.734375 242.035156 364.53125 242.492188 351.582031 L 244.632812 300.101562 C 244.785156 296.75 243.5625 293.550781 241.273438 291.265625 C 238.984375 288.828125 235.929688 287.613281 232.570312 287.613281 C 231.199219 287.613281 229.824219 287.917969 228.601562 288.375 C 227.535156 282.738281 222.648438 278.472656 216.847656 278.472656 L 216.695312 278.472656 C 213.640625 278.472656 210.894531 279.539062 208.757812 281.519531 C 206.621094 279.691406 203.871094 278.472656 200.820312 278.472656 L 200.515625 278.472656 Z M 206.621094 290.351562 L 206.621094 309.089844 L 210.589844 308.785156 L 210.589844 290.351562 C 210.589844 287.003906 213.183594 284.414062 216.542969 284.414062 L 216.695312 284.414062 C 219.902344 284.414062 222.648438 287.003906 222.648438 290.351562 L 222.648438 308.023438 L 226.617188 307.71875 L 226.617188 299.492188 C 226.617188 296.140625 229.214844 293.550781 232.570312 293.550781 C 235.929688 293.550781 238.675781 296.292969 238.523438 299.644531 L 236.386719 351.125 C 236.082031 360.722656 228.144531 368.492188 218.527344 368.492188 L 196.699219 368.492188 C 187.84375 368.492188 180.363281 362.09375 178.992188 353.410156 L 178.378906 349.300781 L 154.414062 319.75 C 152.277344 317.160156 152.734375 313.351562 155.175781 311.21875 C 156.246094 310.304688 157.773438 309.847656 159.144531 309.847656 C 160.976562 309.847656 162.65625 310.609375 163.878906 312.132812 L 178.53125 330.109375 L 178.53125 271.007812 C 178.53125 267.660156 181.28125 264.917969 184.636719 264.917969 C 187.996094 264.917969 190.746094 267.660156 190.746094 271.007812 L 190.746094 310.152344 L 194.714844 309.847656 L 194.714844 290.351562 C 194.714844 287.003906 197.308594 284.414062 200.667969 284.414062 L 200.820312 284.414062 C 203.871094 284.414062 206.621094 287.003906 206.621094 290.351562 Z M 206.621094 290.351562 " fill-opacity="1" fill-rule="nonzero"/></g><path fill="#ff5757" d="M 183.570312 237.5 C 171.816406 237.5 162.199219 247.09375 162.199219 258.824219 C 162.199219 263.394531 163.726562 267.660156 166.167969 271.160156 L 166.167969 270.855469 C 166.167969 267.507812 167.082031 264.460938 168.609375 261.871094 C 168.457031 260.804688 168.304688 259.890625 168.304688 258.671875 C 168.304688 250.292969 175.175781 243.441406 183.570312 243.441406 C 191.964844 243.441406 198.835938 250.292969 198.835938 258.671875 C 198.835938 258.976562 198.835938 259.28125 198.835938 259.585938 C 200.820312 262.175781 202.195312 265.222656 202.652344 268.417969 C 204.179688 265.527344 205.09375 262.175781 205.09375 258.671875 C 204.941406 247.09375 195.324219 237.5 183.570312 237.5 Z M 183.570312 237.5 " fill-opacity="1" fill-rule="nonzero"/><g clip-path="url(#50de09653d)"><path fill="#ff5757" d="M 140.828125 290.808594 C 140.0625 305.433594 128.15625 316.703125 113.351562 316.703125 L 106.785156 316.703125 C 105.410156 312.285156 101.441406 309.089844 96.558594 309.089844 C 90.605469 309.089844 85.871094 313.808594 85.871094 319.75 C 85.871094 325.691406 90.605469 330.410156 96.558594 330.410156 C 101.441406 330.410156 105.410156 327.214844 106.785156 322.796875 L 113.351562 322.796875 C 130.90625 322.796875 145.40625 309.394531 146.78125 292.027344 C 151.664062 288.222656 157.773438 286.089844 164.183594 286.242188 C 164.640625 286.546875 165.097656 286.851562 165.558594 287.15625 C 165.558594 287.15625 165.710938 287.15625 165.710938 287.308594 C 165.863281 287.460938 166.015625 287.460938 166.167969 287.613281 L 166.167969 280.148438 C 160.0625 275.121094 156.09375 267.507812 156.09375 258.976562 L 156.09375 255.929688 L 122.050781 255.929688 C 120.675781 251.511719 116.707031 248.3125 111.824219 248.3125 C 105.871094 248.3125 101.136719 253.035156 101.136719 258.976562 C 101.136719 264.917969 105.871094 269.636719 111.824219 269.636719 C 116.707031 269.636719 120.675781 266.441406 122.050781 262.023438 L 150.140625 262.023438 C 150.75 269.179688 153.648438 275.578125 158.078125 280.757812 C 152.125 281.824219 146.476562 284.414062 141.742188 288.375 C 141.132812 288.828125 140.828125 289.742188 140.828125 290.808594 Z M 96.558594 324.320312 C 93.960938 324.320312 91.976562 322.339844 91.976562 319.75 C 91.976562 317.160156 93.960938 315.179688 96.558594 315.179688 C 99.152344 315.179688 101.136719 317.160156 101.136719 319.75 C 101.136719 322.339844 99.152344 324.320312 96.558594 324.320312 Z M 111.824219 263.394531 C 109.226562 263.394531 107.242188 261.414062 107.242188 258.824219 C 107.242188 256.234375 109.226562 254.253906 111.824219 254.253906 C 114.417969 254.253906 116.402344 256.234375 116.402344 258.824219 C 116.402344 261.414062 114.417969 263.394531 111.824219 263.394531 Z M 111.824219 263.394531 " fill-opacity="1" fill-rule="nonzero"/></g><g clip-path="url(#476e07eea9)"><path fill="#ff5757" d="M 183.375 45.058594 C 149.160156 45.058594 121.324219 72.949219 121.324219 107.230469 C 121.324219 119.226562 124.738281 130.871094 131.203125 140.902344 C 137.265625 150.308594 145.707031 157.871094 155.664062 162.859375 L 155.664062 167.160156 L 151.804688 167.160156 C 150.683594 167.160156 149.773438 168.070312 149.773438 169.195312 C 149.773438 170.320312 150.683594 171.230469 151.804688 171.230469 L 155.664062 171.230469 L 155.664062 208.472656 C 155.664062 209.597656 156.574219 210.507812 157.695312 210.507812 L 168.835938 210.507812 L 168.835938 218.410156 C 168.835938 219.535156 169.746094 220.445312 170.867188 220.445312 L 195.882812 220.445312 C 197.003906 220.445312 197.914062 219.535156 197.914062 218.410156 L 197.914062 210.507812 L 209.054688 210.507812 C 210.175781 210.507812 211.085938 209.597656 211.085938 208.472656 L 211.085938 197.484375 L 214.945312 197.484375 C 216.066406 197.484375 216.976562 196.574219 216.976562 195.449219 C 216.976562 194.324219 216.066406 193.414062 214.945312 193.414062 L 211.085938 193.414062 L 211.085938 184.734375 L 214.945312 184.734375 C 216.066406 184.734375 216.976562 183.824219 216.976562 182.699219 C 216.976562 181.574219 216.066406 180.664062 214.945312 180.664062 L 211.085938 180.664062 L 211.085938 171.230469 L 214.945312 171.230469 C 216.066406 171.230469 216.976562 170.320312 216.976562 169.195312 C 216.976562 168.070312 216.066406 167.160156 214.945312 167.160156 L 211.085938 167.160156 L 211.085938 162.859375 C 221.042969 157.871094 229.484375 150.308594 235.542969 140.902344 C 242.007812 130.871094 245.425781 119.226562 245.425781 107.230469 C 245.425781 72.949219 217.589844 45.058594 183.375 45.058594 Z M 193.851562 216.375 L 172.898438 216.375 L 172.898438 210.507812 L 193.851562 210.507812 Z M 207.019531 180.664062 L 177.703125 180.664062 C 176.582031 180.664062 175.671875 181.574219 175.671875 182.699219 C 175.671875 183.824219 176.582031 184.734375 177.703125 184.734375 L 207.019531 184.734375 L 207.019531 193.414062 L 177.703125 193.414062 C 176.582031 193.414062 175.671875 194.324219 175.671875 195.449219 C 175.671875 196.574219 176.582031 197.484375 177.703125 197.484375 L 207.019531 197.484375 L 207.019531 206.4375 L 195.898438 206.4375 C 195.894531 206.4375 195.890625 206.433594 195.882812 206.433594 C 195.878906 206.433594 195.871094 206.4375 195.867188 206.4375 L 170.882812 206.4375 C 170.878906 206.4375 170.875 206.433594 170.867188 206.433594 C 170.863281 206.433594 170.855469 206.4375 170.851562 206.4375 L 159.726562 206.4375 L 159.726562 171.230469 L 207.019531 171.230469 Z M 181.410156 115.699219 C 181.410156 114.363281 182.496094 113.273438 183.832031 113.273438 C 185.167969 113.273438 186.253906 114.363281 186.253906 115.699219 C 186.253906 117.039062 185.167969 118.128906 183.832031 118.128906 C 182.496094 118.128906 181.410156 117.039062 181.410156 115.699219 Z M 208.183594 159.757812 C 208.144531 159.777344 208.109375 159.800781 208.074219 159.824219 C 208.003906 159.859375 207.9375 159.898438 207.875 159.941406 C 207.820312 159.980469 207.777344 160.023438 207.726562 160.066406 C 207.675781 160.109375 207.625 160.152344 207.582031 160.199219 C 207.535156 160.25 207.496094 160.300781 207.453125 160.351562 C 207.414062 160.40625 207.375 160.453125 207.339844 160.511719 C 207.304688 160.566406 207.277344 160.621094 207.246094 160.679688 C 207.21875 160.738281 207.1875 160.796875 207.164062 160.859375 C 207.140625 160.921875 207.121094 160.988281 207.105469 161.050781 C 207.085938 161.113281 207.070312 161.171875 207.058594 161.238281 C 207.042969 161.3125 207.039062 161.386719 207.035156 161.464844 C 207.03125 161.507812 207.019531 161.550781 207.019531 161.597656 L 207.019531 167.160156 L 185.863281 167.160156 L 185.863281 121.867188 C 188.445312 121.011719 190.316406 118.574219 190.316406 115.699219 C 190.316406 112.117188 187.40625 109.203125 183.832031 109.203125 C 180.253906 109.203125 177.347656 112.117188 177.347656 115.699219 C 177.347656 118.570312 179.214844 121.011719 181.796875 121.867188 L 181.796875 167.160156 L 159.726562 167.160156 L 159.726562 161.597656 C 159.726562 161.542969 159.714844 161.496094 159.710938 161.445312 C 159.707031 161.378906 159.703125 161.308594 159.691406 161.242188 C 159.679688 161.171875 159.660156 161.105469 159.640625 161.035156 C 159.625 160.980469 159.609375 160.921875 159.585938 160.867188 C 159.5625 160.796875 159.527344 160.734375 159.496094 160.667969 C 159.46875 160.617188 159.441406 160.5625 159.410156 160.515625 C 159.375 160.453125 159.332031 160.402344 159.289062 160.34375 C 159.25 160.296875 159.214844 160.25 159.171875 160.203125 C 159.121094 160.152344 159.070312 160.105469 159.015625 160.058594 C 158.96875 160.019531 158.925781 159.980469 158.875 159.945312 C 158.8125 159.898438 158.742188 159.859375 158.671875 159.820312 C 158.632812 159.800781 158.601562 159.773438 158.566406 159.757812 C 138.410156 150.183594 125.386719 129.566406 125.386719 107.230469 C 125.386719 75.195312 151.398438 49.128906 183.375 49.128906 C 215.347656 49.128906 241.363281 75.195312 241.363281 107.230469 C 241.363281 129.566406 228.339844 150.183594 208.183594 159.757812 Z M 208.183594 159.757812 " fill-opacity="1" fill-rule="nonzero"/></g><g clip-path="url(#eca7992ab4)"><path fill="#ff5757" d="M 183.375 34.6875 C 184.496094 34.6875 185.40625 33.777344 185.40625 32.652344 L 185.40625 23.167969 C 185.40625 22.046875 184.496094 21.132812 183.375 21.132812 C 182.253906 21.132812 181.34375 22.046875 181.34375 23.167969 L 181.34375 32.652344 C 181.34375 33.777344 182.253906 34.6875 183.375 34.6875 Z M 183.375 34.6875 " fill-opacity="1" fill-rule="nonzero"/></g><path fill="#ff5757" d="M 144.988281 43.503906 C 145.363281 44.15625 146.046875 44.519531 146.75 44.519531 C 147.09375 44.519531 147.441406 44.433594 147.761719 44.25 C 148.734375 43.6875 149.066406 42.441406 148.507812 41.46875 L 143.777344 33.257812 C 143.214844 32.28125 141.972656 31.949219 141 32.511719 C 140.027344 33.074219 139.695312 34.316406 140.257812 35.292969 Z M 144.988281 43.503906 " fill-opacity="1" fill-rule="nonzero"/><path fill="#ff5757" d="M 110.722656 66.371094 L 118.917969 71.113281 C 119.238281 71.296875 119.589844 71.386719 119.933594 71.386719 C 120.636719 71.386719 121.320312 71.019531 121.695312 70.367188 C 122.257812 69.394531 121.921875 68.148438 120.953125 67.585938 L 112.757812 62.84375 C 111.785156 62.28125 110.542969 62.617188 109.980469 63.589844 C 109.417969 64.5625 109.75 65.808594 110.722656 66.371094 Z M 110.722656 66.371094 " fill-opacity="1" fill-rule="nonzero"/><g clip-path="url(#abd6ccbb69)"><path fill="#ff5757" d="M 112.152344 106.046875 C 112.152344 104.921875 111.242188 104.011719 110.121094 104.011719 L 100.65625 104.011719 C 99.53125 104.011719 98.625 104.921875 98.625 106.046875 C 98.625 107.171875 99.53125 108.082031 100.65625 108.082031 L 110.121094 108.082031 C 111.242188 108.082031 112.152344 107.171875 112.152344 106.046875 Z M 112.152344 106.046875 " fill-opacity="1" fill-rule="nonzero"/></g><path fill="#ff5757" d="M 118.917969 140.980469 L 110.722656 145.71875 C 109.75 146.28125 109.417969 147.527344 109.976562 148.5 C 110.351562 149.152344 111.035156 149.519531 111.738281 149.519531 C 112.082031 149.519531 112.433594 149.429688 112.753906 149.246094 L 120.949219 144.507812 C 121.921875 143.945312 122.253906 142.699219 121.695312 141.726562 C 121.132812 140.753906 119.894531 140.417969 118.917969 140.980469 Z M 118.917969 140.980469 " fill-opacity="1" fill-rule="nonzero"/><path fill="#ff5757" d="M 256.023438 145.722656 L 247.828125 140.984375 C 246.855469 140.417969 245.613281 140.753906 245.054688 141.726562 C 244.492188 142.703125 244.824219 143.945312 245.796875 144.507812 L 253.992188 149.25 C 254.3125 149.433594 254.660156 149.523438 255.007812 149.523438 C 255.707031 149.523438 256.390625 149.15625 256.769531 148.503906 C 257.328125 147.53125 256.996094 146.285156 256.023438 145.722656 Z M 256.023438 145.722656 " fill-opacity="1" fill-rule="nonzero"/><g clip-path="url(#3486703b9e)"><path fill="#ff5757" d="M 266.089844 104.015625 L 256.628906 104.015625 C 255.507812 104.015625 254.597656 104.925781 254.597656 106.050781 C 254.597656 107.175781 255.507812 108.085938 256.628906 108.085938 L 266.089844 108.085938 C 267.214844 108.085938 268.121094 107.175781 268.121094 106.050781 C 268.121094 104.925781 267.214844 104.015625 266.089844 104.015625 Z M 266.089844 104.015625 " fill-opacity="1" fill-rule="nonzero"/></g><path fill="#ff5757" d="M 246.816406 71.386719 C 247.160156 71.386719 247.511719 71.296875 247.828125 71.113281 L 256.023438 66.371094 C 256.996094 65.808594 257.328125 64.566406 256.769531 63.589844 C 256.207031 62.617188 254.964844 62.285156 253.992188 62.847656 L 245.796875 67.585938 C 244.824219 68.148438 244.492188 69.394531 245.054688 70.367188 C 245.429688 71.019531 246.113281 71.386719 246.816406 71.386719 Z M 246.816406 71.386719 " fill-opacity="1" fill-rule="nonzero"/><path fill="#ff5757" d="M 218.984375 44.246094 C 219.304688 44.433594 219.65625 44.519531 220 44.519531 C 220.703125 44.519531 221.386719 44.15625 221.761719 43.503906 L 226.496094 35.292969 C 227.054688 34.320312 226.722656 33.074219 225.75 32.511719 C 224.777344 31.949219 223.539062 32.28125 222.976562 33.257812 L 218.242188 41.464844 C 217.679688 42.441406 218.015625 43.683594 218.984375 44.246094 Z M 218.984375 44.246094 " fill-opacity="1" fill-rule="nonzero"/><path fill="#ff5757" d="M 225.386719 87.253906 C 221.808594 87.253906 218.902344 90.167969 218.902344 93.753906 C 218.902344 96.625 220.769531 99.0625 223.351562 99.917969 L 223.351562 110.613281 L 210.371094 123.621094 C 210.335938 123.65625 210.3125 123.695312 210.28125 123.726562 C 210.226562 123.792969 210.167969 123.855469 210.117188 123.929688 C 210.070312 124 210.035156 124.078125 209.996094 124.152344 C 209.976562 124.195312 209.949219 124.234375 209.933594 124.277344 C 209.890625 124.371094 209.867188 124.472656 209.839844 124.570312 C 209.832031 124.601562 209.820312 124.628906 209.816406 124.65625 C 209.789062 124.792969 209.773438 124.933594 209.773438 125.074219 L 209.773438 141.152344 L 200.671875 145.207031 L 200.671875 118.316406 L 206.40625 112.566406 C 206.503906 112.472656 206.589844 112.367188 206.664062 112.253906 C 206.6875 112.214844 206.703125 112.175781 206.726562 112.136719 C 206.769531 112.0625 206.816406 111.984375 206.851562 111.902344 C 206.871094 111.851562 206.882812 111.800781 206.898438 111.75 C 206.921875 111.675781 206.949219 111.601562 206.964844 111.519531 C 206.980469 111.441406 206.984375 111.363281 206.988281 111.28125 C 206.992188 111.230469 207.003906 111.179688 207.003906 111.125 L 207.003906 108.191406 C 209.589844 107.332031 211.457031 104.894531 211.457031 102.023438 C 211.457031 98.441406 208.550781 95.523438 204.972656 95.523438 C 201.394531 95.523438 198.488281 98.441406 198.488281 102.023438 C 198.488281 104.894531 200.359375 107.332031 202.941406 108.191406 L 202.941406 110.28125 L 197.203125 116.03125 C 197.105469 116.128906 197.023438 116.234375 196.949219 116.34375 C 196.914062 116.394531 196.894531 116.445312 196.867188 116.496094 C 196.828125 116.5625 196.789062 116.625 196.761719 116.695312 C 196.734375 116.761719 196.71875 116.828125 196.699219 116.898438 C 196.679688 116.957031 196.65625 117.011719 196.644531 117.074219 C 196.621094 117.207031 196.605469 117.339844 196.605469 117.472656 L 196.605469 148.339844 C 196.605469 149.027344 196.953125 149.671875 197.53125 150.046875 C 197.863281 150.261719 198.25 150.375 198.636719 150.375 C 198.917969 150.375 199.199219 150.316406 199.464844 150.199219 L 212.632812 144.335938 C 213.367188 144.007812 213.839844 143.28125 213.839844 142.476562 L 213.839844 125.902344 L 226.824219 112.894531 C 226.890625 112.828125 226.941406 112.753906 226.996094 112.679688 C 227.019531 112.648438 227.050781 112.621094 227.070312 112.589844 C 227.128906 112.507812 227.167969 112.417969 227.210938 112.332031 C 227.226562 112.300781 227.246094 112.273438 227.257812 112.238281 C 227.300781 112.136719 227.332031 112.03125 227.355469 111.925781 C 227.363281 111.902344 227.371094 111.882812 227.375 111.859375 C 227.402344 111.722656 227.417969 111.582031 227.417969 111.441406 L 227.417969 99.921875 C 230 99.0625 231.871094 96.625 231.871094 93.753906 C 231.871094 90.167969 228.964844 87.253906 225.386719 87.253906 Z M 202.550781 102.023438 C 202.550781 100.683594 203.636719 99.597656 204.972656 99.597656 C 206.308594 99.597656 207.394531 100.683594 207.394531 102.023438 C 207.394531 103.359375 206.308594 104.449219 204.972656 104.449219 C 203.636719 104.449219 202.550781 103.359375 202.550781 102.023438 Z M 225.386719 96.179688 C 224.050781 96.179688 222.964844 95.089844 222.964844 93.753906 C 222.964844 92.414062 224.050781 91.328125 225.386719 91.328125 C 226.722656 91.328125 227.808594 92.414062 227.808594 93.753906 C 227.808594 95.089844 226.722656 96.179688 225.386719 96.179688 Z M 225.386719 96.179688 " fill-opacity="1" fill-rule="nonzero"/><path fill="#ff5757" d="M 170.976562 116.929688 C 170.953125 116.851562 170.933594 116.769531 170.902344 116.691406 C 170.875 116.632812 170.84375 116.582031 170.8125 116.527344 C 170.78125 116.464844 170.753906 116.402344 170.714844 116.34375 C 170.652344 116.25 170.578125 116.160156 170.5 116.078125 C 170.484375 116.0625 170.476562 116.046875 170.460938 116.035156 L 164.722656 110.28125 L 164.722656 108.191406 C 167.304688 107.332031 169.175781 104.894531 169.175781 102.023438 C 169.175781 98.4375 166.269531 95.523438 162.691406 95.523438 C 159.117188 95.523438 156.207031 98.441406 156.207031 102.023438 C 156.207031 104.894531 158.078125 107.332031 160.660156 108.1875 L 160.660156 111.125 C 160.660156 111.148438 160.664062 111.171875 160.667969 111.195312 C 160.667969 111.304688 160.679688 111.414062 160.699219 111.523438 C 160.710938 111.589844 160.738281 111.652344 160.757812 111.71875 C 160.777344 111.777344 160.789062 111.84375 160.8125 111.902344 C 160.84375 111.976562 160.882812 112.042969 160.921875 112.109375 C 160.949219 112.15625 160.96875 112.207031 161 112.253906 C 161.074219 112.367188 161.160156 112.46875 161.253906 112.566406 L 166.992188 118.316406 L 166.992188 145.207031 L 157.890625 141.152344 L 157.890625 125.074219 C 157.890625 124.933594 157.875 124.792969 157.847656 124.65625 C 157.84375 124.628906 157.832031 124.601562 157.824219 124.574219 C 157.800781 124.476562 157.773438 124.375 157.730469 124.277344 C 157.714844 124.238281 157.691406 124.199219 157.671875 124.164062 C 157.632812 124.082031 157.59375 124.003906 157.542969 123.929688 C 157.503906 123.867188 157.453125 123.8125 157.40625 123.757812 C 157.367188 123.710938 157.335938 123.664062 157.296875 123.621094 L 144.3125 110.613281 L 144.3125 99.917969 C 146.894531 99.0625 148.765625 96.625 148.765625 93.753906 C 148.765625 90.167969 145.855469 87.253906 142.277344 87.253906 C 138.703125 87.253906 135.792969 90.167969 135.792969 93.753906 C 135.792969 96.625 137.664062 99.0625 140.246094 99.917969 L 140.246094 111.449219 C 140.246094 111.585938 140.261719 111.722656 140.289062 111.855469 C 140.296875 111.898438 140.3125 111.9375 140.324219 111.976562 C 140.347656 112.0625 140.367188 112.152344 140.402344 112.238281 C 140.421875 112.285156 140.453125 112.324219 140.472656 112.371094 C 140.511719 112.445312 140.546875 112.519531 140.589844 112.585938 C 140.632812 112.644531 140.679688 112.695312 140.726562 112.75 C 140.765625 112.796875 140.796875 112.851562 140.84375 112.894531 L 153.824219 125.902344 L 153.824219 142.476562 C 153.824219 143.28125 154.296875 144.007812 155.03125 144.335938 L 168.199219 150.199219 C 168.464844 150.316406 168.746094 150.375 169.027344 150.375 C 169.414062 150.375 169.796875 150.261719 170.132812 150.046875 C 170.710938 149.667969 171.058594 149.027344 171.058594 148.339844 L 171.058594 117.476562 C 171.058594 117.339844 171.042969 117.207031 171.015625 117.070312 C 171.007812 117.023438 170.988281 116.976562 170.976562 116.929688 Z M 162.691406 104.449219 C 161.355469 104.449219 160.269531 103.359375 160.269531 102.023438 C 160.269531 100.683594 161.355469 99.597656 162.691406 99.597656 C 164.027344 99.597656 165.113281 100.683594 165.113281 102.023438 C 165.113281 103.359375 164.027344 104.449219 162.691406 104.449219 Z M 142.277344 96.179688 C 140.941406 96.179688 139.855469 95.089844 139.855469 93.753906 C 139.855469 92.414062 140.941406 91.328125 142.277344 91.328125 C 143.613281 91.328125 144.699219 92.414062 144.699219 93.753906 C 144.699219 95.089844 143.613281 96.179688 142.277344 96.179688 Z M 142.277344 96.179688 " fill-opacity="1" fill-rule="nonzero"/><g fill="#ffffff" fill-opacity="1"><g transform="translate(246.041576, 217.7838)"><g><path d="M 2.75 -6.375 C 3.382812 -6.375 3.898438 -6.222656 4.296875 -5.921875 C 4.703125 -5.617188 4.90625 -5.21875 4.90625 -4.71875 C 4.90625 -4.132812 4.507812 -3.4375 3.71875 -2.625 L 2.4375 -1.265625 L 5.09375 -1.265625 L 5.09375 0 L 0.375 0 L 0.375 -1.03125 L 2.625 -3.421875 C 3.03125 -3.835938 3.234375 -4.195312 3.234375 -4.5 C 3.234375 -4.675781 3.171875 -4.816406 3.046875 -4.921875 C 2.921875 -5.023438 2.742188 -5.078125 2.515625 -5.078125 C 1.992188 -5.078125 1.421875 -4.8125 0.796875 -4.28125 L 0.203125 -5.421875 C 1.035156 -6.054688 1.882812 -6.375 2.75 -6.375 Z M 2.75 -6.375 "/></g></g></g><g fill="#ffffff" fill-opacity="1"><g transform="translate(251.891619, 217.7838)"><g><path d="M 3.171875 -6.359375 C 4.066406 -6.359375 4.753906 -6.082031 5.234375 -5.53125 C 5.710938 -4.976562 5.953125 -4.1875 5.953125 -3.15625 C 5.953125 -2.125 5.710938 -1.332031 5.234375 -0.78125 C 4.753906 -0.226562 4.066406 0.046875 3.171875 0.046875 C 2.265625 0.046875 1.570312 -0.226562 1.09375 -0.78125 C 0.613281 -1.332031 0.375 -2.125 0.375 -3.15625 C 0.375 -4.1875 0.613281 -4.976562 1.09375 -5.53125 C 1.570312 -6.082031 2.265625 -6.359375 3.171875 -6.359375 Z M 3.171875 -5.1875 C 2.765625 -5.1875 2.46875 -5.023438 2.28125 -4.703125 C 2.101562 -4.390625 2.015625 -3.875 2.015625 -3.15625 C 2.015625 -2.4375 2.101562 -1.914062 2.28125 -1.59375 C 2.46875 -1.28125 2.765625 -1.125 3.171875 -1.125 C 3.566406 -1.125 3.851562 -1.285156 4.03125 -1.609375 C 4.21875 -1.929688 4.3125 -2.445312 4.3125 -3.15625 C 4.3125 -3.875 4.21875 -4.390625 4.03125 -4.703125 C 3.851562 -5.023438 3.566406 -5.1875 3.171875 -5.1875 Z M 3.171875 -5.1875 "/></g></g></g><g fill="#ffffff" fill-opacity="1"><g transform="translate(258.668668, 217.7838)"><g><path d="M 2.75 -6.375 C 3.382812 -6.375 3.898438 -6.222656 4.296875 -5.921875 C 4.703125 -5.617188 4.90625 -5.21875 4.90625 -4.71875 C 4.90625 -4.132812 4.507812 -3.4375 3.71875 -2.625 L 2.4375 -1.265625 L 5.09375 -1.265625 L 5.09375 0 L 0.375 0 L 0.375 -1.03125 L 2.625 -3.421875 C 3.03125 -3.835938 3.234375 -4.195312 3.234375 -4.5 C 3.234375 -4.675781 3.171875 -4.816406 3.046875 -4.921875 C 2.921875 -5.023438 2.742188 -5.078125 2.515625 -5.078125 C 1.992188 -5.078125 1.421875 -4.8125 0.796875 -4.28125 L 0.203125 -5.421875 C 1.035156 -6.054688 1.882812 -6.375 2.75 -6.375 Z M 2.75 -6.375 "/></g></g></g><g fill="#ffffff" fill-opacity="1"><g transform="translate(264.518711, 217.7838)"><g><path d="M 3.171875 -6.359375 C 4.066406 -6.359375 4.753906 -6.082031 5.234375 -5.53125 C 5.710938 -4.976562 5.953125 -4.1875 5.953125 -3.15625 C 5.953125 -2.125 5.710938 -1.332031 5.234375 -0.78125 C 4.753906 -0.226562 4.066406 0.046875 3.171875 0.046875 C 2.265625 0.046875 1.570312 -0.226562 1.09375 -0.78125 C 0.613281 -1.332031 0.375 -2.125 0.375 -3.15625 C 0.375 -4.1875 0.613281 -4.976562 1.09375 -5.53125 C 1.570312 -6.082031 2.265625 -6.359375 3.171875 -6.359375 Z M 3.171875 -5.1875 C 2.765625 -5.1875 2.46875 -5.023438 2.28125 -4.703125 C 2.101562 -4.390625 2.015625 -3.875 2.015625 -3.15625 C 2.015625 -2.4375 2.101562 -1.914062 2.28125 -1.59375 C 2.46875 -1.28125 2.765625 -1.125 3.171875 -1.125 C 3.566406 -1.125 3.851562 -1.285156 4.03125 -1.609375 C 4.21875 -1.929688 4.3125 -2.445312 4.3125 -3.15625 C 4.3125 -3.875 4.21875 -4.390625 4.03125 -4.703125 C 3.851562 -5.023438 3.566406 -5.1875 3.171875 -5.1875 Z M 3.171875 -5.1875 "/></g></g></g><g fill="#ffffff" fill-opacity="1"><g transform="translate(103.738123, 217.7838)"><g><path d="M 5.5625 -5.046875 L 2.234375 -5.046875 L 2.234375 -3.78125 L 5.234375 -3.78125 L 5.234375 -2.53125 L 2.234375 -2.53125 L 2.234375 -1.265625 L 5.65625 -1.265625 L 5.65625 0 L 0.625 0 L 0.625 -6.296875 L 5.5625 -6.296875 Z M 5.5625 -5.046875 "/></g></g></g><g fill="#ffffff" fill-opacity="1"><g transform="translate(110.254166, 217.7838)"><g><path d="M 3.046875 -6.375 C 3.992188 -6.375 4.820312 -6.140625 5.53125 -5.671875 L 4.9375 -4.421875 C 4.601562 -4.609375 4.242188 -4.765625 3.859375 -4.890625 C 3.484375 -5.015625 3.171875 -5.078125 2.921875 -5.078125 C 2.453125 -5.078125 2.21875 -4.921875 2.21875 -4.609375 C 2.21875 -4.410156 2.332031 -4.25 2.5625 -4.125 C 2.789062 -4.007812 3.066406 -3.910156 3.390625 -3.828125 C 3.722656 -3.742188 4.050781 -3.640625 4.375 -3.515625 C 4.707031 -3.390625 4.984375 -3.1875 5.203125 -2.90625 C 5.429688 -2.632812 5.546875 -2.289062 5.546875 -1.875 C 5.546875 -1.269531 5.304688 -0.796875 4.828125 -0.453125 C 4.359375 -0.117188 3.757812 0.046875 3.03125 0.046875 C 2.507812 0.046875 1.992188 -0.0390625 1.484375 -0.21875 C 0.972656 -0.394531 0.53125 -0.640625 0.15625 -0.953125 L 0.78125 -2.1875 C 1.09375 -1.90625 1.460938 -1.675781 1.890625 -1.5 C 2.328125 -1.320312 2.710938 -1.234375 3.046875 -1.234375 C 3.304688 -1.234375 3.507812 -1.28125 3.65625 -1.375 C 3.800781 -1.46875 3.875 -1.609375 3.875 -1.796875 C 3.875 -1.960938 3.789062 -2.101562 3.625 -2.21875 C 3.457031 -2.34375 3.25 -2.429688 3 -2.484375 C 2.757812 -2.546875 2.492188 -2.625 2.203125 -2.71875 C 1.910156 -2.8125 1.640625 -2.914062 1.390625 -3.03125 C 1.148438 -3.144531 0.945312 -3.328125 0.78125 -3.578125 C 0.625 -3.828125 0.546875 -4.125 0.546875 -4.46875 C 0.546875 -5.050781 0.773438 -5.515625 1.234375 -5.859375 C 1.691406 -6.203125 2.296875 -6.375 3.046875 -6.375 Z M 3.046875 -6.375 "/></g></g></g><g fill="#ffffff" fill-opacity="1"><g transform="translate(116.50021, 217.7838)"><g><path d="M 5.4375 -5.015625 L 3.546875 -5.015625 L 3.546875 0 L 1.9375 0 L 1.9375 -5.015625 L 0.0625 -5.015625 L 0.0625 -6.3125 L 5.4375 -6.3125 Z M 5.4375 -5.015625 "/></g></g></g><g fill="#ffffff" fill-opacity="1"><g transform="translate(122.449244, 217.7838)"><g><path d="M 0.625 -6.296875 L 3.34375 -6.296875 C 4.332031 -6.296875 5.132812 -6.003906 5.75 -5.421875 C 6.375 -4.835938 6.6875 -4.082031 6.6875 -3.15625 C 6.6875 -2.21875 6.367188 -1.457031 5.734375 -0.875 C 5.109375 -0.289062 4.289062 0 3.28125 0 L 0.625 0 Z M 2.234375 -5.015625 L 2.234375 -1.28125 L 3.375 -1.28125 C 3.863281 -1.28125 4.265625 -1.453125 4.578125 -1.796875 C 4.898438 -2.140625 5.0625 -2.585938 5.0625 -3.140625 C 5.0625 -3.691406 4.894531 -4.140625 4.5625 -4.484375 C 4.226562 -4.835938 3.804688 -5.015625 3.296875 -5.015625 Z M 2.234375 -5.015625 "/></g></g></g></svg>